<?xml version="1.0" encoding="utf-8"?>
<!-- Generator: Adobe Illustrator 21.1.0, SVG Export Plug-In . SVG Version: 6.00 Build 0)  -->
<svg version="1.1" id="OBJECTS" xmlns="http://www.w3.org/2000/svg" xmlns:xlink="http://www.w3.org/1999/xlink" x="0px" y="0px"
	 viewBox="0 0 1920 1080" style="enable-background:new 0 0 1920 1080;" xml:space="preserve">
<style type="text/css">
	.st0{fill:#6B68C6;}
	.st1{fill:#FFFFFF;}
	.st2{fill:#8986D1;}
	.st3{fill:#ECC29A;}
	.st4{fill:#B32B5A;}
	.st5{clip-path:url(#SVGID_2_);}
	.st6{fill:#ECC29A;stroke:#ECC29A;stroke-width:5.71;stroke-linecap:round;stroke-linejoin:round;}
</style>
<title>xmas</title>
<path class="st0" d="M1021,323.8c11.5-0.9,12.1,16.1,1.2,17C1010.9,341.8,1009.1,324.4,1021,323.8"/>
<path class="st0" d="M1518.8,970.4c11.5-0.9,12,16.1,1.2,17C1508.7,988.4,1506.9,970.9,1518.8,970.4"/>
<path class="st0" d="M1561.1,178.9c9.6-0.8,10,13.4,1,14.2C1552.7,193.9,1551.2,179.4,1561.1,178.9"/>
<path class="st0" d="M430.6,1022.7c11.5-0.9,12,16.1,1.2,17.1C420.5,1040.7,418.8,1023.3,430.6,1022.7"/>
<path class="st0" d="M68.6,178.9c9.6-0.8,10,13.4,1,14.2C60.1,193.9,58.7,179.4,68.6,178.9"/>
<path class="st0" d="M849,1022.7c11.5-0.9,12,16.1,1.2,17.1C838.9,1040.7,837.1,1023.3,849,1022.7"/>
<path class="st0" d="M1079.3,530.3c9.6-0.8,10,13.4,1,14.2C1070.8,545.3,1069.4,530.8,1079.3,530.3"/>
<path class="st0" d="M1606.7,579.5c15.3-1.2,16.1,21.5,1.6,22.7C1593.2,603.5,1590.9,580.3,1606.7,579.5"/>
<path class="st0" d="M1427.3,413.8c11.5-0.9,12.1,16.1,1.2,17C1417.2,431.9,1415.4,414.4,1427.3,413.8"/>
<path class="st0" d="M200.5,507.3c9.6-0.8,10,13.4,1,14.2C192,522.3,190.6,507.8,200.5,507.3"/>
<path class="st0" d="M1269.9,853c13.4-1.1,14.1,18.8,1.4,19.9C1258.1,874,1256.1,853.7,1269.9,853"/>
<path class="st0" d="M327.4,835.6c15.3-1.2,16.1,21.5,1.6,22.7C313.9,859.6,311.6,836.4,327.4,835.6"/>
<path class="st0" d="M1884.5,750.3c11.5-0.9,12,16.1,1.2,17C1874.4,768.3,1872.6,750.9,1884.5,750.3"/>
<path class="st0" d="M1832.7,200.5c9.6-0.8,10,13.4,1,14.2C1824.3,215.5,1822.8,201,1832.7,200.5"/>
<path class="st0" d="M1272.7,221.9c13.4-1.1,14.1,18.8,1.4,19.9C1260.8,242.9,1258.8,222.6,1272.7,221.9"/>
<path class="st0" d="M952,867.7c15.3-1.2,16.1,21.5,1.6,22.7C938.5,891.7,936.2,868.5,952,867.7"/>
<path class="st0" d="M206.5,223.4c11.5-0.9,12,16.1,1.2,17.1C196.3,241.4,194.6,224,206.5,223.4"/>
<path class="st1" d="M1146.6,293.2c-1.6,5.3-3,10.7-4,15.4c4.7-2.7,9.3-5.6,13.7-8.8c4.4,2.7,9.2,5.2,14.3,7.8
	c-1.7-4.8-3.3-9.9-5-14.9c3.8-3.1,7.4-6.2,10.7-9.3c-4.7-0.6-9.5-1-14.3-1.1c-1.8-4.9-3.6-12.1-5.5-15.7c-2.1,3.3-4.3,10.6-6.3,15.8
	c-5.1,0.2-10,0.5-14.7,0.9C1139,286.9,1142.6,290.2,1146.6,293.2z"/>
<path class="st1" d="M1850.2,609.7c-1.7,5.3-3,10.7-4,15.4c4.7-2.7,9.3-5.6,13.7-8.8c4.4,2.7,9.2,5.2,14.3,7.8
	c-1.7-4.8-3.3-9.9-5-14.9c3.8-3.1,7.4-6.2,10.7-9.3c-4.7-0.6-9.5-1-14.3-1.1c-1.8-4.9-3.6-12.2-5.5-15.7c-2.1,3.3-4.3,10.6-6.3,15.8
	c-5.1,0.2-10,0.5-14.7,0.9C1842.5,603.4,1846.2,606.7,1850.2,609.7z"/>
<path class="st2" d="M202.4,684.4l-12.7,10l15.1-4.1l3.4,16.5l4-16.2l14.3,2.9l-12.1-9.6l11.8-8c-0.9-0.1-14.3,2.1-14.3,2.1
	l-2.7-15.4l-3.8,15.5l-15.2-2.7L202.4,684.4z"/>
<path class="st2" d="M201.5,683.6l-12.7,10c-1,0.8,0.1,2.4,1.2,2.1l15.1-4.1l-1.5-0.9l3.4,16.4c0.2,0.7,0.9,1,1.6,0.8
	c0.4-0.1,0.7-0.4,0.8-0.8l4-16.2l-1.5,0.9l14.3,2.9c1.1,0.2,2.3-1.2,1.2-2.1l-12.1-9.5l-0.3,2l11.8-8c0.6-0.4,0.8-1.1,0.4-1.7
	c-0.2-0.4-0.6-0.6-1-0.6c-4.8,0.1-9.8,1.4-14.6,2.2l1.5,0.9l-2.7-15.4c-0.2-1.2-2.1-1.1-2.4,0l-3.8,15.5l1.5-0.9l-15.2-2.7
	c-0.7-0.2-1.4,0.2-1.6,0.8c-0.2,0.5,0.1,1.1,0.6,1.4l12.1,8.9c1.3,0.9,2.5-1.2,1.3-2.1l-12.1-8.9l-1,2.3l15.2,2.7
	c0.7,0.2,1.3-0.2,1.5-0.9l3.8-15.5H208l2.7,15.4c0.2,0.7,0.9,1,1.5,0.9c4.6-0.7,9.3-2,13.9-2.1l-0.6-2.3l-11.8,8
	c-0.6,0.3-0.8,1.1-0.5,1.7c0.1,0.1,0.1,0.2,0.2,0.3l12.1,9.5l1.2-2.1l-14.3-2.9c-0.7-0.2-1.3,0.2-1.5,0.9l-4,16.2h2.4L206,690
	c-0.2-0.7-0.9-1-1.5-0.9l-15.1,4.1l1.2,2.1l12.7-10C204.6,684.3,202.8,682.6,201.5,683.6z"/>
<path class="st2" d="M1106.4,734.5l-12.7,10l15.1-4.1l3.4,16.5l4-16.2l14.3,2.9l-12.1-9.5l11.8-8c-0.9-0.1-14.3,2.1-14.3,2.1
	l-2.7-15.4l-3.8,15.5l-15.2-2.7L1106.4,734.5z"/>
<path class="st2" d="M1105.5,733.6l-12.7,10c-1,0.8,0.1,2.4,1.2,2.1l15.1-4.1l-1.5-0.9l3.4,16.5c0.2,0.7,0.9,1,1.5,0.9
	c0.4-0.1,0.7-0.4,0.9-0.9l4-16.2l-1.5,0.9l14.3,2.9c1.1,0.2,2.3-1.2,1.2-2.1l-12.1-9.5l-0.3,2l11.8-8c0.6-0.4,0.8-1.1,0.4-1.7
	c-0.2-0.4-0.6-0.6-1-0.6c-4.8,0.1-9.8,1.4-14.6,2.2l1.5,0.9l-2.7-15.4c-0.2-1.2-2.1-1.1-2.4,0l-3.8,15.4l1.5-0.9l-15.2-2.7
	c-0.7-0.2-1.4,0.2-1.6,0.8c-0.2,0.5,0.1,1.1,0.6,1.4l12.1,8.9c1.3,0.9,2.5-1.2,1.3-2.1l-12.1-8.9l-1,2.3l15.2,2.7
	c0.7,0.2,1.3-0.2,1.5-0.9l3.8-15.5h-2.4l2.7,15.4c0.2,0.7,0.9,1,1.5,0.9c4.6-0.7,9.3-2,13.9-2.1l-0.6-2.3l-11.8,8
	c-0.6,0.3-0.8,1.1-0.5,1.7c0.1,0.1,0.1,0.2,0.2,0.3l12.1,9.5l1.2-2.1l-14.3-2.9c-0.7-0.2-1.3,0.2-1.5,0.9l-4,16.2h2.4l-3.4-16.5
	c-0.2-0.7-0.9-1-1.5-0.9l-15.1,4.1l1.2,2.1l12.7-10C1108.5,734.4,1106.7,732.7,1105.5,733.6z"/>
<path class="st3" d="M1715.7,217.1c2.3,3,4,6.5,5,10.2c0.9,3.3,1.4,6.7,1.4,10.2c0,3.4-0.4,6.9-1.4,10.2c-1,3.7-2.7,7.1-5,10.2
	c-2.3-3-4-6.5-5-10.2c-0.9-3.3-1.4-6.7-1.4-10.2c0-3.4,0.5-6.9,1.4-10.2C1711.7,223.6,1713.4,220.2,1715.7,217.1z"/>
<path class="st3" d="M1733.8,237.6c-2.6,2.3-5.7,4-9.1,5c-5.9,1.8-12.2,1.8-18.1-0.1c-3.3-1-6.4-2.8-9.1-5.1c2.6-2.3,5.7-4,9.1-5
	c2.9-0.9,6-1.4,9.1-1.3c3.1,0,6.1,0.5,9.1,1.4C1728.1,233.5,1731.2,235.3,1733.8,237.6z"/>
<path class="st3" d="M198.7,335.6c2.3,3,4,6.5,5,10.2c0.9,3.3,1.4,6.7,1.4,10.2c0,3.4-0.4,6.9-1.4,10.2c-1,3.7-2.7,7.1-5,10.2
	c-2.3-3-4-6.5-5-10.2c-0.9-3.3-1.4-6.7-1.4-10.2c0-3.4,0.5-6.9,1.4-10.2C194.7,342.1,196.4,338.6,198.7,335.6z"/>
<path class="st3" d="M216.8,356c-2.6,2.3-5.7,4-9.1,5c-5.9,1.8-12.2,1.8-18.1,0c-3.3-1-6.4-2.8-9.1-5.1c2.6-2.3,5.7-4,9.1-5
	c2.9-0.9,6-1.4,9.1-1.3c3.1,0,6.1,0.5,9.1,1.4C211.1,352,214.1,353.7,216.8,356z"/>
<path class="st3" d="M1522.5,847.3c-10.8,9.2-22.3,17.7-32.3,27.8c-2.1,2.1,1.2,5.3,3.2,3.2c10.1-10.1,21.5-18.6,32.3-27.8
	C1528,848.6,1524.7,845.4,1522.5,847.3z"/>
<path class="st3" d="M1490.8,850.6c10.6,9.4,21.1,18.9,32.3,27.7c2.3,1.8,5.5-1.4,3.2-3.2c-11.2-8.8-21.7-18.2-32.3-27.7
	C1491.9,845.4,1488.6,848.6,1490.8,850.6z"/>
<path class="st3" d="M1506.3,841.2c0,14-1,28-0.7,42.1c0.1,2.9,4.6,3,4.6,0c-0.3-14,0.6-28,0.7-42.1
	C1510.9,838.2,1506.3,838.2,1506.3,841.2z"/>
<path class="st3" d="M1527.9,859.6h-40.7c-2.9,0-2.9,4.6,0,4.6h40.7C1530.9,864.2,1530.9,859.6,1527.9,859.6L1527.9,859.6z"/>
<path class="st3" d="M1310.9,680.6c-47.8,31.5-80.5,82.8-98.5,136.3c-0.9,2.8,3.5,4,4.4,1.2c17.6-52.3,49.7-102.8,96.4-133.6
	C1315.6,683,1313.4,679,1310.9,680.6L1310.9,680.6z"/>
<path class="st3" d="M1332.6,717.2c-22.6-1.1-45.8,1.9-68.3,4.3l2,3.4c1.5-2.4,2.2-5.5,2.9-8.1c1.5-5.4,2.7-10.9,3.9-16.5
	c2.7-12.8,5.1-25.8,7.1-38.8c0.4-2.9-4-4.1-4.4-1.2c-1.8,12.5-4.2,25-6.8,37.5c-1.1,5.3-2.3,10.7-3.7,15.9c-0.8,2.9-1.3,6.3-2.9,8.9
	c-0.8,1.4,0.2,3.6,2,3.4c22.5-2.5,45.7-5.4,68.3-4.3C1335.5,721.9,1335.5,717.4,1332.6,717.2L1332.6,717.2z"/>
<path class="st3" d="M1325.4,750.6c-15.8-8.3-32.1-15.7-48.3-23.3l-8.8-4.1c-0.8-0.4-1.5-0.8-2.4-1.1c-1.2-0.4,0,0.1,0.1,0.3
	c-3.2-6.6-5.6-13.7-8.3-20.5c-4.9-12.9-9.6-25.9-13-39.3c-0.7-2.8-5.1-1.6-4.4,1.2c3.2,12.3,7.2,24.4,11.8,36.2
	c3,7.9,5.6,16.3,9.5,23.8c1.6,3,5.8,4,8.8,5.4c8.7,4,17.3,8.1,25.9,12.2c8.9,4.3,17.9,8.5,26.6,13
	C1325.7,755.9,1328,752,1325.4,750.6L1325.4,750.6z"/>
<path class="st3" d="M1262.3,725c10,16.4,20.2,32.6,25.2,51.4c0.8,2.8,5.2,1.6,4.4-1.2c-5-19.1-15.4-35.8-25.6-52.5
	C1264.7,720.2,1260.7,722.5,1262.3,725L1262.3,725z"/>
<path class="st3" d="M1263.8,722.8c-10-4.3-19.5-9.6-29-14.7c-6.9-3.7-14-7.9-21.6-9.8c-2.9-0.7-4.1,3.7-1.2,4.4
	c7.8,1.9,15,6.3,21.9,10.1c9.1,4.9,18.1,9.8,27.6,14C1264.3,727.9,1266.6,724,1263.8,722.8L1263.8,722.8z"/>
<path class="st1" d="M1295.2,764.5c11.6,6.6,1.1,23.2-9.9,17.1C1273.9,775.2,1283.5,757.4,1295.2,764.5"/>
<path class="st1" d="M1318.5,671.9c14.7,8.3,1.4,29.5-12.6,21.7C1291.4,685.4,1303.7,662.9,1318.5,671.9"/>
<path class="st1" d="M1325.3,742.3c12.6,7.2,1.2,25.3-10.8,18.6C1302,753.9,1312.5,734.5,1325.3,742.3"/>
<path class="st1" d="M1334.6,711.1c11.6,6.6,1.1,23.2-9.9,17.1C1313.2,721.7,1322.9,704,1334.6,711.1"/>
<path class="st1" d="M1224.2,692.3c12.6,7.2,1.2,25.3-10.8,18.6C1200.9,703.9,1211.4,684.6,1224.2,692.3"/>
<path class="st1" d="M1283.6,656.1c11.6,6.6,1.1,23.2-9.9,17.1C1262.3,666.8,1271.9,649,1283.6,656.1"/>
<path class="st1" d="M1249.7,658.2c12.6,7.2,1.2,25.3-10.8,18.6C1226.5,669.8,1237,650.5,1249.7,658.2"/>
<path class="st3" d="M1559.3,430.8c-9.5,22.9-18.2,46.1-25.5,69.8c-0.6,2.1,1.7,3.3,3.4,2.6c23.2-10.2,45.8-21.8,67.6-34.6h-2.3
	c20.3,15.1,41.4,29,62.8,42.4c1.1,0.6,2.5,0.2,3.1-0.9c0.3-0.5,0.4-1.1,0.2-1.7c-5.7-23.8-10.9-47.6-16.2-71.4l-1,2.6
	c18.3-12.2,36.3-24.9,53.8-38.2c1.4-1.1,1.6-3.7-0.6-4.2c-21.9-5-44-8.8-66.2-11.5l2.2,1.7c-5.7-22.6-10.2-45.9-19-67.6
	c-0.6-1.4-2.6-2.5-3.8-1c-15,18.9-25.2,41.7-36,63.1l2-1.1c-22.9-1.3-45.8-1.9-68.8-2.3c-2.2,0-2.8,2.4-1.6,3.9
	c14.1,18.1,29.6,35,46.4,50.7c2.1,2,5.4-1.2,3.2-3.2c-16.8-15.7-32.3-32.7-46.5-50.8l-1.6,3.9c22.9,0.3,45.9,0.9,68.8,2.3
	c0.8,0,1.6-0.4,2-1.1c10.7-21,20.6-43.6,35.3-62.2l-3.8-1c8.7,21.7,13.2,45,19,67.6c0.3,1,1.2,1.7,2.2,1.7
	c21.8,2.7,43.5,6.5,65,11.4l-0.6-4.2c-17.6,13.2-35.5,26-53.8,38.2c-0.9,0.6-1.3,1.6-1,2.6c5.4,23.8,10.6,47.7,16.2,71.4l3.4-2.6
	c-21.4-13.4-42.5-27.3-62.8-42.4c-0.7-0.4-1.6-0.4-2.3,0c-21.9,12.8-44.4,24.4-67.6,34.6l3.4,2.6c7.3-23.7,15.9-46.9,25.5-69.8
	C1564.8,429.3,1560.4,428.1,1559.3,430.8z"/>
<path class="st3" d="M1617.6,322.8c-5.9,48.4-10.7,97-16.5,145.5c-0.3,2.9,4.2,2.9,4.6,0c5.9-48.4,10.6-97,16.5-145.5
	C1622.5,319.9,1617.9,319.9,1617.6,322.8z"/>
<path class="st3" d="M1698.9,399.3c-46.3,8.6-92.9,16-138,29.9c-2.8,0.9-1.6,5.3,1.2,4.4c45.1-13.9,91.8-21.3,138-29.9
	C1703,403.2,1701.8,398.8,1698.9,399.3z"/>
<path class="st3" d="M1636.4,386.6c-34.1,35.1-68.2,70.5-98.8,108.7c-1.8,2.3,1.4,5.5,3.2,3.2c30.6-38.2,64.7-73.6,98.8-108.7
	C1641.7,387.7,1638.4,384.5,1636.4,386.6z"/>
<path class="st3" d="M1581.5,384c15,21.1,28.5,43.2,42.4,65.1c13,20.6,25.8,41.6,40.7,61c1.8,2.3,5.7,0,3.9-2.3
	c-14.9-19.3-27.6-40.4-40.7-61c-13.8-21.8-27.4-44-42.4-65.1C1583.7,379.3,1579.8,381.6,1581.5,384z"/>
<path class="st3" d="M1651.6,435.2c-44.8-19.6-90.4-37.3-135.4-56.5c-2.7-1.1-5,2.8-2.3,3.9c45,19.2,90.6,36.9,135.4,56.5
	C1652,440.3,1654.3,436.4,1651.6,435.2L1651.6,435.2z"/>
<path class="st3" d="M1467.5,585.8c16.3-3.2,33.4-1.7,46,10.2s18.1,29.5,21.8,45.9c4.8,21.4,7.2,43.2,7.2,65.1
	c-0.1,19.8-4,41-14.4,58.1c-9.4,15.5-25.4,24.9-43.8,22.5c-15.9-2.1-28.8-13-38.5-25.2c-20.9-26.4-32.3-61.4-38.3-94.2
	c-3.3-18.2-4.5-38.5,6.2-54.6C1425.3,595.9,1447.8,589.4,1467.5,585.8c2.9-0.5,1.7-4.9-1.2-4.4c-18.9,3.4-39.4,9.5-52.5,24.5
	c-12,13.8-14.5,32.3-12.8,49.9c1.7,17,6.1,34,11.4,50.2c6,18.2,13.7,36.3,24.6,52.2c9.4,13.7,21.7,26.7,37.9,31.9
	c16.8,5.5,35.7,1.4,48.2-11.2c14.6-14.6,20.6-36.4,22.9-56.4c2.6-22.7-0.2-46.6-3.9-69.1c-3.1-18.8-8-38.9-19.8-54.3
	c-10-13.1-24.9-19.9-41.3-19.6c-5,0.2-9.9,0.7-14.7,1.8C1463.4,582,1464.6,586.4,1467.5,585.8L1467.5,585.8z"/>
<path class="st3" d="M1525.3,611.3c0.3,5.5,0.4,13.5-5.5,16.3c-5,2.4-11.4-0.3-15.8-2.8c-14.8-8.2-25.8-23.7-30.8-39.6
	c-0.9-2.8-5.3-1.6-4.4,1.2c3.3,10.5,6.1,21.8,5.2,33c-0.3,4.3-1.6,12.4-6.8,13.7s-9.6-5.1-11.8-8.7c-5.8-9.6-8.2-21.2-9.7-32.2
	c-0.4-2.8-4.7-3-4.6,0c0.9,14.9-2.4,31-8.5,44.6c-2.5,5.6-5.9,12.2-11.4,15.4c-6.2,3.6-12-0.2-16.5-4.6c-2.1-2.1-5.3,1.1-3.2,3.2
	c4.8,4.9,11.2,9,18.3,7c6.7-1.9,11.4-8.4,14.6-14.2c8.2-15,12.3-34.4,11.3-51.5h-4.6c1.7,12.3,4.2,25.5,11.3,36
	c3.3,5,8.9,10.8,15.6,9.4c6.5-1.4,9.2-8.7,10.1-14.4c2.1-12.6-1.1-25.9-4.9-37.9l-4.4,1.2c5.8,18,18.9,36.6,36.8,44.2
	c5.6,2.4,12.6,3.7,17.9,0c6.2-4.2,6.8-12.7,6.3-19.4C1529.7,608.4,1525.2,608.3,1525.3,611.3L1525.3,611.3z"/>
<path class="st3" d="M1540.5,667.4c-16.4,11.7-35.8,19.3-55.3,24.2c-23.9,6-49,7.5-73.2,2.3c-2.9-0.6-4.1,3.8-1.2,4.4
	c24.4,5.2,49.8,3.9,74-2c20.4-4.9,40.8-12.8,58-25.1C1545.2,669.6,1542.9,665.7,1540.5,667.4L1540.5,667.4z"/>
<path class="st3" d="M1542.7,705.1c-33.9,19.6-76,28-114.9,25.2c-2.9-0.2-2.9,4.3,0,4.6c39.7,2.9,82.6-5.8,117.2-25.8
	C1547.5,707.6,1545.2,703.7,1542.7,705.1L1542.7,705.1z"/>
<path class="st3" d="M1544.7,703.9c-9.2-6-16.8-14.1-26.3-19.6c-1.1-0.6-2.5-0.2-3.2,0.9c-0.1,0.2-0.2,0.3-0.2,0.5
	c-3.2,7.7-6.2,15.4-9.2,23.1c-1.8,4.5-3.2,10.4-6.2,14.3h3.9c-7.2-9.3-14.6-19.2-23.6-26.8c-0.9-0.9-2.4-0.9-3.3,0.1
	c-0.1,0.1-0.2,0.3-0.3,0.4c-5.6,10.3-10.2,21.1-15.1,31.8l3.6-0.5c-9.3-8.9-18-18.3-26.3-28.2c-0.9-0.9-2.4-0.9-3.3,0
	c-0.1,0.1-0.2,0.3-0.3,0.4c-5.7,9.2-9.3,19-12.7,29.1c-0.9,2.8,3.5,4,4.4,1.2c3.3-9.8,6.8-19.2,12.3-28l-3.6,0.5
	c8.3,9.9,17,19.3,26.3,28.2c1,0.9,3,0.9,3.6-0.5c4.9-10.7,9.4-21.5,15.1-31.8l-3.6,0.5c8.6,7.2,16.4,17.5,22.8,25.8
	c0.7,1.1,2.1,1.4,3.2,0.7c0.3-0.2,0.5-0.4,0.7-0.7c2.9-3.8,4.4-9.7,6.1-14.1c3.2-8.1,6.4-16.3,9.7-24.3l-3.4,1.4
	c9.4,5.5,17.1,13.6,26.3,19.6C1544.8,709.5,1547.1,705.5,1544.7,703.9L1544.7,703.9z"/>
<path class="st4" d="M1514.4,677c-8.1,1.9-11-10.7-2.9-12.5S1522.5,675.1,1514.4,677z"/>
<path class="st4" d="M1476.9,685.6c-8.1,1.9-11-10.7-2.9-12.5S1485,683.8,1476.9,685.6z"/>
<path class="st4" d="M1437.5,692.1c-8.1,1.9-11-10.7-2.9-12.5S1445.6,690.2,1437.5,692.1z"/>
<path class="st4" d="M1509,744.8c-8.1,1.9-11-10.7-2.9-12.5S1517.1,742.9,1509,744.8z"/>
<path class="st4" d="M1470.8,753.6c-8.1,1.9-11-10.7-2.9-12.5S1478.9,751.8,1470.8,753.6z"/>
<path class="st3" d="M1451.9,550.5c3.4-13.2,6.7-27.2,6-41c-0.5-9.7-3.8-20.8-14.6-23.2c-8.4-1.8-18.7,1.2-20.8,10.5
	c-2.1,9.5,2.8,20,6.9,28.2c4.6,9.2,10.3,18.8,17.4,26.2c2,2.1,5.3-1.1,3.2-3.2c-4.9-5.1-8.7-11.3-12.3-17.3
	c-4.7-7.8-9.2-16.4-10.8-25.5c-1.5-8.7,2.3-14.9,11.7-14.8c11,0.1,14.2,10.3,14.6,19.6c0.5,13.2-2.6,26.5-5.9,39.3
	C1446.8,552.1,1451.2,553.4,1451.9,550.5L1451.9,550.5z"/>
<path class="st3" d="M1472.1,552.5c1.6,6.6,3.7,13.2,4.9,19.9c0.5,3,1.2,6.2-1.8,8c-1.5,0.8-3.2,1.3-4.8,1.6
	c-4.4,1.1-8.9,2.2-13.4,3.2c-5.5,1.4-11.1,2.5-16.8,3.3c-1.8,0.2-4.9,0.8-6.4-0.5c-2.3-2-2.3-7.6-3-10.1c-1.1-4.7-3.4-10.3-3.1-15.1
	c0.2-2.9,2.2-3.4,4.7-4.3c7.9-2.5,15.9-4.7,24-6.6C1459.5,551,1470.7,547.2,1472.1,552.5c0.7,2.9,5.1,1.7,4.4-1.2
	c-1.2-4.9-5.9-6-10.4-5.8c-8.9,0.5-17.9,3.8-26.4,6.2c-4.3,1.2-11.7,2-14.9,5.8c-2.6,3.1-1.6,7.6-0.9,11.2c1.3,6.4,2.3,14,4.9,20
	c1,2.4,3.1,4,5.7,4.4c4.6,0.9,9.8-0.5,14.2-1.4c8.7-1.7,18.2-3.2,26.5-6.3c4.1-1.5,6.6-4.2,6.8-8.7c0.2-8.3-3.5-17.4-5.5-25.3
	C1475.7,548.4,1471.3,549.6,1472.1,552.5L1472.1,552.5z"/>
<path class="st3" d="M1447.7,553.1c1.6,11.1,5.3,21.7,7.9,32.6c0.7,2.9,5.1,1.7,4.4-1.2c-2.6-10.9-6.3-21.5-7.9-32.6
	C1451.7,549,1447.3,550.3,1447.7,553.1z"/>
<path class="st3" d="M1458.9,550.9c2.5,10.8,6.3,21.2,8.5,32.1c0.6,2.9,5,1.7,4.4-1.2c-2.2-10.8-6-21.3-8.5-32.1
	C1462.6,546.9,1458.2,548.1,1458.9,550.9z"/>
<path class="st3" d="M1434.5,558c2.3,10.4,4.5,20.7,7.8,30.8c0.9,2.8,5.3,1.6,4.4-1.2c-3.3-10.1-5.5-20.4-7.8-30.8
	C1438.3,553.9,1433.9,555.1,1434.5,558z"/>
<path class="st3" d="M1278.8,454.2c10.6-11.8,20.2-25.6,21.4-41.9c1.4-19.2-10.1-35.9-22.9-49c-0.9-0.9-2.3-0.9-3.2,0
	c-21.4,18.6-50,52.6-29.9,81.6l3.6-2.8c-21.5-27.6-60.8-29.3-90.5-15.4c-1.1,0.7-1.4,2-0.8,3.1c11.8,26.1,38.2,46.6,67.3,46.7V472
	c-15.8,0.4-30.8,7.2-41.6,18.8c-12.5,13.4-17.5,31.5-16.2,49.5c0,1.2,1,2.3,2.3,2.3c31.3-0.3,64.4-16.2,80-43.8l-4.3-1.1
	c-1,18.2,1.9,37.1,14.1,51.3c11.2,12.9,27.9,19.1,44.3,22.1c1.2,0.3,2.4-0.4,2.8-1.6c6-14.7,3.9-32.2-0.6-47
	c-4.3-14.2-11.8-29.4-24.7-37.6l-2.3,3.9c14.8,6.5,31.6,11.4,47.7,7.4c16.7-4.2,28-17.7,35.2-32.6c0.5-0.9,0.4-2-0.4-2.8
	c-22-17.2-58.6-23.6-84-10.2c-2.6,1.4-0.3,5.3,2.3,3.9c23.3-12.4,58.1-6.4,78.4,9.5l-0.4-2.8c-6.7,13.9-16.8,26.6-32.5,30.5
	c-14.9,3.7-30.6-0.9-44.2-6.9c-2.6-1.2-4.8,2.3-2.3,3.9c12.2,7.8,19.1,22.7,23,36.1c4,13.8,5.8,29.7,0.2,43.3l2.8-1.6
	c-15.3-2.8-30.8-8.3-41.6-20.1c-12-13.3-14.5-31.6-13.5-48.8c0.1-2.3-3.2-3.1-4.3-1.1c-14.8,26.3-46.3,41.3-76.1,41.6l2.3,2.3
	c-1.2-16.8,3.2-33.7,14.9-46.3c9.9-10.7,23.8-17,38.4-17.5c2.9-0.1,2.9-4.6,0-4.6c-27.6-0.1-52.2-19.8-63.3-44.4l-0.8,3.1
	c28-13.1,64.8-11.2,84.9,14.7c1.6,2,5.1-0.6,3.6-2.8c-18.8-27.1,9.4-58.9,29.2-76.1h-3.2c12,12.3,23,27.8,21.6,45.8
	c-1.1,15-10.3,27.9-20.1,38.7C1273.6,453.1,1276.8,456.3,1278.8,454.2L1278.8,454.2z"/>
<path class="st3" d="M1263.8,442.9c1.2-11.6,5.7-22.5,9.1-33.6c0.8-2.8-3.6-4-4.4-1.2c-3.5,11.5-8,22.8-9.2,34.8
	C1258.9,445.8,1263.5,445.8,1263.8,442.9z"/>
<path class="st3" d="M1281.8,472.7c11.4,0.5,22.8-0.4,34.2-1c2.9-0.2,2.9-4.7,0-4.6c-11.4,0.7-22.8,1.5-34.2,1
	C1278.9,468,1278.9,472.6,1281.8,472.7z"/>
<path class="st3" d="M1229.8,454.7c-10.9-5.9-21.8-11.8-32.6-17.9c-2.6-1.4-4.9,2.5-2.3,3.9c10.8,6,21.7,12,32.6,17.9
	C1230.1,460,1232.4,456.1,1229.8,454.7z"/>
<path class="st3" d="M1231.1,485.8c-9.6,7.4-20.9,12.2-30.4,19.6c-2.3,1.8,0.9,5,3.2,3.2c9.6-7.4,20.8-12.2,30.4-19.6
	C1236.6,487.2,1233.4,484,1231.1,485.8z"/>
<path class="st3" d="M1261.5,496.2c4.8,10.6,8.4,21.7,13.6,32.1c1.3,2.6,5.3,0.3,3.9-2.3c-5.2-10.4-8.8-21.5-13.6-32.1
	C1264.2,491.2,1260.3,493.5,1261.5,496.2L1261.5,496.2z"/>
<path class="st3" d="M1271.2,447.2c2-5.6,4-11.1,7.1-16.1c1.6-2.5-2.4-4.8-3.9-2.3c-3.4,5.3-5.5,11.3-7.6,17.2
	C1265.8,448.8,1270.2,450,1271.2,447.2L1271.2,447.2z"/>
<path class="st3" d="M1254.7,442.5c0.8-5.7,1.1-11.4,1.6-17.1c0.2-2.9-4.3-2.9-4.6,0c-0.4,5.3-0.6,10.6-1.4,15.9
	C1249.9,444.1,1254.3,445.4,1254.7,442.5L1254.7,442.5z"/>
<path class="st3" d="M1282.1,464.8c5.3-1,10.7-2.4,16.1-2.8c2.9-0.2,2.9-4.8,0-4.6c-5.9,0.4-11.6,1.8-17.3,2.9
	C1278,460.9,1279.3,465.4,1282.1,464.8L1282.1,464.8z"/>
<path class="st3" d="M1280.8,480.1c5.8,1.9,11.8,3,17.7,4.3c2.9,0.6,4.1-3.8,1.2-4.4c-5.9-1.3-11.9-2.4-17.7-4.3
	C1279.2,474.8,1278,479.2,1280.8,480.1z"/>
<path class="st3" d="M1235.9,447.3c-5.3-2.5-9.1-7-14.3-9.8c-2.6-1.4-4.9,2.6-2.3,3.9c5.1,2.7,9,7.3,14.3,9.8
	C1236.3,452.5,1238.6,448.5,1235.9,447.3z"/>
<path class="st3" d="M1226,461.5c-5.4-0.6-10.5-2.4-15.8-3.6c-2.9-0.7-4.1,3.7-1.2,4.4c5.7,1.3,11.2,3.1,17,3.7
	C1229,466.3,1228.9,461.8,1226,461.5L1226,461.5z"/>
<path class="st3" d="M1235.9,491c-4.4,4.8-9.5,8.9-13,14.5c-1.6,2.5,2.4,4.8,3.9,2.3c3.3-5.2,8.2-9.1,12.3-13.5
	C1241.1,492.1,1237.9,488.8,1235.9,491L1235.9,491z"/>
<path class="st3" d="M1227.7,479.2c-6.4,1.9-12.2,5.3-18.4,8c-2.7,1.2-0.4,5.1,2.3,3.9c5.8-2.5,11.2-5.7,17.3-7.5
	C1231.7,482.8,1230.5,478.4,1227.7,479.2L1227.7,479.2z"/>
<path class="st3" d="M1251.9,498.2c0.6,5.4,1.9,10.8,2.2,16.2c0.2,2.9,4.7,2.9,4.6,0c-0.3-5.5-1.6-10.8-2.2-16.2
	C1256.1,495.3,1251.6,495.3,1251.9,498.2z"/>
<path class="st3" d="M1268.8,494.3c4.1,4.8,6.6,10.8,11.7,14.7c2.3,1.8,5.6-1.4,3.2-3.2c-5-3.9-7.6-9.9-11.7-14.7
	C1270.1,488.8,1266.9,492,1268.8,494.3z"/>
<path class="st3" d="M1269.3,450.5c8.9,6.8,13.1,17.5,8.1,28c-4.1,8.6-13.1,15-22.7,15.4c-11.1,0.5-22.8-7.4-26-18.2
	c-2.7-9.1,1-19.1,7.9-25.3C1246.5,441.7,1259.3,443,1269.3,450.5c2.3,1.8,4.6-2.2,2.3-4c-10.6-7.9-24.3-9.5-35.4-1.6
	c-9.2,6.6-14.6,18.3-12.4,29.5c2.4,12.7,14.7,22.6,27.3,23.9c11.8,1.1,23.6-5.6,29.4-15.8c7.5-13.1,2.7-27.2-8.9-36
	C1269.3,444.8,1267,448.8,1269.3,450.5L1269.3,450.5z"/>
<path class="st1" d="M1251,474c8.7,1.2,6.3,14-1.9,12.9C1240.5,485.7,1242.1,472.5,1251,474"/>
<path class="st1" d="M1266.2,457.8c11.1,1.6,8,17.8-2.5,16.4C1252.7,472.7,1254.8,455.8,1266.2,457.8"/>
<path class="st1" d="M1246.1,452.9c9.5,1.3,6.8,15.3-2.1,14.1C1234.6,465.7,1236.4,451.2,1246.1,452.9"/>
<path class="st3" d="M1380.3,315.8c16.5-13.5,13.5-35.1,6.4-52.9l-2.8,2.8c19.5,6,44.3-7.3,46.2-28.5l-3.4,2
	c16.6,9.2,43.3,1.6,48.5-17.8l-3.8,1c14.4,15.7,35.4,20.6,55.6,14.6l-2.2-3.8c-12.7,12.6-22.2,35.9-15.6,53.5l2.8-2.8
	c-9.5-1.7-18.8-0.2-26.4,6.1c-7.8,6.6-12,16.5-14.5,26.2l3.4-1.4c-20.4-12.4-40.9,2.1-50.1,21.1h3.9c-11-15.9-29.7-31.5-50.1-24
	c-2.7,1-1.6,5.4,1.2,4.4c18.4-6.8,35.1,7.6,45,21.9c0.9,1.3,3.1,1.7,3.9,0c8.1-16.6,25.6-30.6,43.9-19.5c1.1,0.6,2.5,0.2,3.2-0.9
	c0.1-0.2,0.2-0.3,0.2-0.5c4.5-17.1,15.6-32.8,35.3-29.1c1.5,0.3,3.5-1,2.8-2.8c-6-16.1,2.8-37.5,14.5-49.1c0.9-0.9,0.8-2.4-0.1-3.3
	c-0.6-0.5-1.4-0.8-2.1-0.6c-18.7,5.6-37.9,1.1-51.2-13.4c-0.9-0.9-2.4-0.9-3.3,0c-0.3,0.3-0.5,0.6-0.6,1
	c-4.4,16.4-27.8,22.8-41.8,15c-1.1-0.6-2.5-0.2-3.1,0.9c-0.2,0.3-0.3,0.7-0.3,1.1c-1.7,18.4-24,29.2-40.4,24.1
	c-1.5-0.5-3.5,1.2-2.8,2.8c6.5,16.3,10.1,36-5.2,48.5C1374.8,314.4,1378.1,317.7,1380.3,315.8L1380.3,315.8z"/>
<path class="st3" d="M1488.9,252.4c-16.9,8.6-33.2,18.3-50.3,26.5c-17,8.1-33.9,16.2-49.2,27.2c-2.4,1.7-0.1,5.7,2.3,3.9
	c15.3-11,32.2-19.1,49.2-27.2c17.2-8.2,33.4-17.9,50.3-26.5C1493.8,255,1491.5,251,1488.9,252.4L1488.9,252.4z"/>
<path class="st3" d="M1467.6,247l-5,18.9c-0.8,2.9,3.7,4.1,4.4,1.2l5-18.9C1472.8,245.4,1468.4,244.1,1467.6,247L1467.6,247z"/>
<path class="st3" d="M1434.7,256.5c-1.9,8.6-3.9,17.3-5,26c-0.4,2.9,4,4.1,4.4,1.2c1.2-8.7,3.1-17.4,5-26
	C1439.7,254.8,1435.3,253.6,1434.7,256.5z"/>
<path class="st3" d="M1406.9,279.7c-1.1,5.6-2.2,11.2-3.4,16.9c-0.6,2.9,3.8,4.1,4.4,1.2c1.1-5.6,2.2-11.2,3.4-16.9
	C1411.9,278,1407.5,276.8,1406.9,279.7z"/>
<path class="st3" d="M1455,274.8c7.7,3.6,15.4,7.2,23.1,10.7c2.7,1.2,5-2.7,2.3-3.9c-7.7-3.5-15.4-7.1-23.1-10.7
	C1454.7,269.6,1452.3,273.5,1455,274.8z"/>
<path class="st3" d="M1422,291.3c8.6,4.2,17.3,8.5,25.6,13.1c2.6,1.4,4.9-2.5,2.3-3.9c-8.4-4.6-17-8.9-25.6-13.1
	C1421.7,286,1419.4,290,1422,291.3z"/>
<path class="st4" d="M1394.7,295.7c22,17.9-6,49-26.7,32.3C1346.1,310.5,1372.6,276.6,1394.7,295.7"/>
<g>
	<defs>
		<rect id="SVGID_1_" width="1920" height="1080"/>
	</defs>
	<clipPath id="SVGID_2_">
		<use xlink:href="#SVGID_1_"  style="overflow:visible;"/>
	</clipPath>
	<g class="st5">
		<path class="st3" d="M1000.8,930.8c6.2,36.4-1.3,73.6-14.7,107.6c-14.2,36-35.1,69.4-59.5,99.2c-12.6,15.4-26.4,29.9-41.3,43.2
			c-2.2,2,1,5.2,3.2,3.2c27.9-25.1,52.1-54,72-85.8c20.8-33,37.5-69.6,44.1-108.2c3.4-20,4-40.3,0.5-60.4
			C1004.7,926.7,1000.3,927.9,1000.8,930.8L1000.8,930.8z"/>
		<path class="st3" d="M1005.5,987.2c7-13.3,15.3-25.8,22.2-39.1c1.3-2.6-2.6-4.9-3.9-2.3c-6.9,13.3-15.2,25.8-22.2,39.1
			C1000.2,987.5,1004.2,989.8,1005.5,987.2z"/>
		<path class="st3" d="M1005.5,984.9c-8-13.6-14.2-27.9-20.5-42.4c-1.2-2.7-5.1-0.4-3.9,2.3c6.3,14.4,12.5,28.8,20.5,42.4
			C1003.1,989.8,1007,987.5,1005.5,984.9z"/>
		<path class="st3" d="M999.4,1013.5c13.1-11.8,25.5-24.1,36.3-38.1c1.8-2.3-2.2-4.6-3.9-2.3c-10.6,13.7-22.7,25.6-35.5,37.2
			C994,1012.2,997.2,1015.4,999.4,1013.5L999.4,1013.5z"/>
		<path class="st3" d="M999.4,1010.3c-12-12-19.7-27.8-25.7-43.5c-1-2.7-5.5-1.5-4.4,1.2c6.3,16.4,14.3,32.9,26.8,45.5
			C998.3,1015.6,1001.5,1012.3,999.4,1010.3L999.4,1010.3z"/>
		<path class="st3" d="M994.3,1038.8c6.8-1.8,12.7-6.8,18-11.3c8-7,15.5-14.5,22.6-22.4c2-2.2-1.3-5.4-3.2-3.2
			c-6.4,7.1-13.1,13.9-20.2,20.3c-5.2,4.7-11.3,10.4-18.3,12.2C990.2,1035.1,991.4,1039.6,994.3,1038.8L994.3,1038.8z"/>
		<path class="st3" d="M993.3,1035.9c-11.3-14.8-22.4-29.6-32.5-45.2c-1.6-2.5-5.5-0.2-3.9,2.3c10.1,15.6,21.2,30.4,32.5,45.2
			C991.2,1040.6,995.1,1038.3,993.3,1035.9z"/>
		<path class="st3" d="M984.2,1058.6c17.6,2.9,32-8.6,42.7-21.3c1.9-2.2-1.3-5.5-3.2-3.2c-9.5,11.2-22.4,22.8-38.3,20.2
			C982.6,1053.7,981.3,1058.1,984.2,1058.6L984.2,1058.6z"/>
		<path class="st3" d="M979.9,1056.4c-6.9-5.3-12.8-11.9-17.1-19.4c-4.1-7.2-7.3-14.7-11.3-22c-1.4-2.6-5.3-0.3-3.9,2.3
			c4.3,8,7.8,16.4,12.5,24.1c4.6,7.4,10.5,13.8,17.5,19C979.9,1062.1,982.2,1058.2,979.9,1056.4L979.9,1056.4z"/>
		<path class="st3" d="M972.3,1080.3c18.3,3.3,37,0.2,50.3-13.6c2-2.1-1.2-5.3-3.2-3.2c-12.1,12.6-29.2,15.5-45.9,12.4
			C970.6,1075.4,969.4,1079.8,972.3,1080.3L972.3,1080.3z"/>
		<path class="st3" d="M971.9,1076.7c-7-3.8-13.4-8.2-18.1-14.7c-5-6.9-8.8-14.7-13.3-21.9c-1.5-2.5-5.5-0.2-3.9,2.3
			c4.8,7.7,8.8,16.1,14.3,23.3c5,6.5,11.6,11.1,18.7,15C972.2,1082.1,974.5,1078.2,971.9,1076.7L971.9,1076.7z"/>
		<path class="st3" d="M959.3,1099.5c14.7,8.8,35.6,3.9,49.3-4.7c2.5-1.6,0.2-5.5-2.3-3.9c-12.3,7.7-31.4,12.7-44.6,4.7
			C959,1094,956.8,1098,959.3,1099.5L959.3,1099.5z"/>
		<path class="st3" d="M957.8,1099.8c-6.3-4.8-12.4-10.1-17.1-16.5c-4.9-6.8-8.2-14.6-11.2-22.4c-1-2.7-5.5-1.5-4.4,1.2
			c3.3,8.5,6.8,17,12.3,24.4c5,6.8,11.4,12.2,18,17.3C957.8,1105.5,960,1101.5,957.8,1099.8L957.8,1099.8z"/>
		<path class="st3" d="M948.5,1118c14.7,6.9,30.8,5.3,46,1c2.8-0.8,1.6-5.2-1.2-4.4c-13.9,3.9-29,5.8-42.5-0.6
			C948.1,1112.8,945.8,1116.7,948.5,1118L948.5,1118z"/>
		<path class="st3" d="M942.7,1118.7c-11.4-10.7-20-24.1-25-38.9c-1-2.8-5.4-1.6-4.4,1.2c5.7,16,13.9,29.2,26.2,40.9
			C941.6,1123.9,944.8,1120.7,942.7,1118.7L942.7,1118.7z"/>
		<path class="st3" d="M932.6,1139c15.1,6,29.9,6.7,45.7,3.1c2.9-0.7,1.7-5.1-1.2-4.4c-15,3.4-28.9,2.6-43.3-3.1
			C931.1,1133.5,929.9,1137.9,932.6,1139L932.6,1139z"/>
		<path class="st3" d="M930.5,1136.2c-12.7-8.3-19.2-19.3-24.3-33.4c-1-2.7-5.4-1.6-4.4,1.2c5.5,15.1,12.7,27.1,26.4,36.1
			C930.6,1141.7,932.9,1137.8,930.5,1136.2L930.5,1136.2z"/>
		<path class="st3" d="M917.8,1155c6.7,3.4,13.6,6.7,21,8.3c7.2,1.6,14.5,1.5,21.9,1.1c2.9-0.2,2.9-4.7,0-4.6
			c-6.9,0.4-13.9,0.5-20.7-1c-7-1.5-13.5-4.6-19.9-7.9C917.5,1149.7,915.1,1153.6,917.8,1155L917.8,1155z"/>
		<path class="st3" d="M913.3,1155.4c-12-9.2-18.2-21.5-22.3-35.8c-0.8-2.8-5.2-1.6-4.4,1.2c4.5,15.5,11.4,28.5,24.3,38.5
			C913.4,1161.2,915.6,1157.2,913.3,1155.4z"/>
		<path class="st3" d="M903.5,1169.4c11.9,7.5,25.6,13.5,39.9,13.2c2.9-0.1,3-4.6,0-4.6c-13.5,0.3-26.3-5.5-37.6-12.6
			C903.3,1163.8,901,1167.8,903.5,1169.4L903.5,1169.4z"/>
		<path class="st3" d="M899.4,1169.1c-8.9-8.7-14.5-18.6-21.1-29c-1.6-2.5-5.5-0.2-3.9,2.3c6.8,10.7,12.7,20.9,21.8,29.9
			C898.2,1174.4,901.5,1171.2,899.4,1169.1L899.4,1169.1z"/>
		<path class="st3" d="M146.8,283.7c-36.8-5.9-74.1,1.5-108.4,15.2c-36.5,14.5-70.1,35.8-100.3,60.8c-16,13.2-30.9,27.6-44.6,43.2
			c-1.9,2.2,1.3,5.5,3.2,3.2c24.2-27.5,52-51.4,82.8-71.3c31.8-20.6,67-37.4,104.3-44.9c20.3-4,41.2-5.1,61.6-1.8
			C148.4,288.5,149.7,284.1,146.8,283.7L146.8,283.7z"/>
		<path class="st3" d="M91.4,287.8c13.2-7.1,25.6-15.6,38.9-22.5c2.6-1.4,0.3-5.3-2.3-3.9c-13.3,7-25.7,15.4-38.9,22.5
			C86.5,285.3,88.8,289.2,91.4,287.8z"/>
		<path class="st3" d="M89.1,287.8c13.7,7.9,28.1,13.9,42.6,20.1c2.7,1.1,5-2.8,2.3-3.9c-14.5-6.2-28.9-12.2-42.6-20.1
			C88.9,282.4,86.6,286.4,89.1,287.8z"/>
		<path class="st3" d="M66.1,293.5c11.6-13.1,23.5-25.4,37.3-36.3c2.3-1.8-0.9-5-3.2-3.2c-13.7,10.8-25.7,23.2-37.3,36.3
			C61,292.5,64.2,295.7,66.1,293.5L66.1,293.5z"/>
		<path class="st3" d="M62.9,293.5c12.7,12.4,29.3,20.3,45.8,26.4c2.8,1,4-3.4,1.2-4.4c-15.7-5.8-31.6-13.4-43.7-25.2
			C64,288.2,60.8,291.5,62.9,293.5z"/>
		<path class="st3" d="M42,296.9c1.7-7,7.4-13.2,12-18.4c6.4-7.1,13.1-14,20.1-20.4c2.2-2-1.1-5.2-3.2-3.2
			c-7.9,7.1-15.3,14.7-22.2,22.8c-4.4,5.3-9.5,11.2-11.2,18.1C36.9,298.5,41.3,299.7,42,296.9L42,296.9z"/>
		<path class="st3" d="M38.2,300.5c14.9,11.1,29.8,22.1,45.5,32.1c2.5,1.6,4.8-2.4,2.3-3.9c-15.7-10-30.7-21-45.5-32.1
			C38.1,294.8,35.9,298.8,38.2,300.5z"/>
		<path class="st3" d="M22.3,304.7c-2.8-15.8,8.6-28.9,19.8-38.5c2.2-1.9-1-5.1-3.2-3.2c-12.6,10.8-24,25.3-20.9,42.9
			C18.4,308.8,22.8,307.6,22.3,304.7z"/>
		<path class="st3" d="M16.6,313c5.3,6.9,11.8,12.7,19.3,17.2c7.6,4.5,15.9,7.8,23.7,12c2.6,1.4,4.9-2.6,2.3-3.9
			c-7.5-3.9-15.3-7.2-22.6-11.3c-7.5-4.4-14.1-10.2-19.4-17.1C18,307.5,14.8,310.8,16.6,313L16.6,313z"/>
		<path class="st3" d="M0.8,316.8c-3.2-16.6-0.5-33.8,12-46c2.1-2.1-1.1-5.3-3.2-3.2C-4.2,281-7.2,299.8-3.7,318.1
			C-3.1,320.9,1.3,319.7,0.8,316.8L0.8,316.8z"/>
		<path class="st3" d="M-4,320.7c3.9,7,8.5,13.6,15,18.5c7.3,5.5,15.8,9.5,23.6,14.2c2.5,1.5,4.8-2.4,2.3-3.9
			c-7.3-4.4-15.1-8.2-22-13.1c-6.6-4.6-11-11-14.9-18C-1.4,315.8-5.4,318.1-4,320.7L-4,320.7z"/>
		<path class="st3" d="M-18.8,329c-8.1-13.2-3.3-32.3,4.2-44.7c1.5-2.5-2.4-4.8-3.9-2.3c-8.4,13.7-13.2,34.7-4.2,49.3
			C-21.2,333.8-17.2,331.5-18.8,329L-18.8,329z"/>
		<path class="st3" d="M-26.6,335.6c5.2,6.6,10.7,12.9,17.5,17.8c7.3,5.2,15.7,8.6,24.1,11.7c2.8,1,3.9-3.4,1.2-4.4
			c-8-3-16-6.3-23-11.3c-6.5-4.6-11.7-10.8-16.6-17C-25.2,330.1-28.4,333.3-26.6,335.6L-26.6,335.6z"/>
		<path class="st3" d="M-37.2,339.9c-6.5-13.5-4.8-28.5-1-42.5c0.8-2.8-3.6-4-4.4-1.2c-4.1,15.3-5.6,31.4,1.5,46
			C-39.8,344.9-35.9,342.5-37.2,339.9L-37.2,339.9z"/>
		<path class="st3" d="M-44.9,351.3c11.8,12.2,25.1,20.3,41.2,25.8c2.8,1,4-3.5,1.2-4.4c-14.9-4.9-28.3-13.3-39.2-24.7
			C-43.7,346-47,349.2-44.9,351.3L-44.9,351.3z"/>
		<path class="st3" d="M-57.6,357.1c-5.9-14.3-6.8-28.2-3.6-43.3c0.6-2.9-3.8-4.1-4.4-1.2c-3.4,15.8-2.6,30.6,3.6,45.7
			C-60.9,361-56.4,359.8-57.6,357.1L-57.6,357.1z"/>
		<path class="st3" d="M-63.1,362.8c9.1,13.6,21.1,20.6,36.3,26c2.8,1,4-3.4,1.2-4.4c-14-5-25.2-11.3-33.6-23.9
			C-60.8,358-64.7,360.3-63.1,362.8L-63.1,362.8z"/>
		<path class="st3" d="M-73.9,371c-3.3-6.3-6.5-12.8-8.1-19.8c-1.6-6.8-1.5-13.7-1.2-20.6c0.1-2.9-4.4-2.9-4.6,0
			c-0.3,7.3-0.3,14.7,1.3,21.9c1.7,7.4,5,14.3,8.6,20.9C-76.5,375.9-72.5,373.6-73.9,371L-73.9,371z"/>
		<path class="st3" d="M-81.8,380.5c9.9,12.6,23.1,19.3,38.4,23.5c2.8,0.8,4-3.6,1.2-4.4c-14.6-4-26.9-10.3-36.3-22.4
			C-80.4,375-83.6,378.3-81.8,380.5z"/>
		<path class="st3" d="M-88.1,385.4c-7.2-11.1-13.1-23.9-12.9-37.4c0-2.9-4.5-2.9-4.6,0c-0.2,14.3,6,27.9,13.6,39.7
			C-90.4,390.2-86.5,387.9-88.1,385.4L-88.1,385.4z"/>
		<path class="st3" d="M-95,395.1c9,9.1,19.3,14.8,30.1,21.6c2.5,1.6,4.8-2.4,2.3-3.9c-10.4-6.5-20.4-12.1-29.2-20.8
			C-93.8,389.8-97.1,393-95,395.1L-95,395.1z"/>
		<path class="st3" d="M1167,916.1c6.7-12.6,10.6-27.4,12.4-41.5c1.6-12.4,2.2-29.8-8.9-38.3c-8.6-6.6-23.8-6-28.1,5.2
			c-4.7,12,0.6,27.7,4.6,39.2c2.7,7.6,5.7,15.1,9.2,22.5c2.1,4.4,4.1,9.1,7,13c1.7,2.3,5.7,0.1,3.9-2.3c-5.2-7.2-8.7-16.3-12-24.5
			c-4.8-11.8-9.6-24.8-9.7-37.7c0-4.4,0.5-9.7,4.1-12.7c4.1-3.3,11-2.7,15.5-0.7c11.9,5.5,11.3,22.9,10.2,33.8
			c-1.5,14.1-5.3,29.2-12.1,41.8C1161.7,916.4,1165.6,918.7,1167,916.1L1167,916.1z"/>
		<path class="st3" d="M1168.2,953.2c0.2-8.2,4-16.9,7.4-24.2c4-8.3,9.3-18.2,17.4-23.1c7.6-4.5,17.6,1.5,17.6,10.4
			c0,9.3-10.4,17-17.2,21.6c-8.4,5.7-18.1,11-28.2,13c-2.9,0.6-1.7,5,1.2,4.4c10.7-2.1,21.3-8,30.2-14.1c8-5.6,18.3-13.9,18.6-24.6
			c0.2-9-8.6-18.2-17.8-17.1c-10.2,1.2-17.4,12-22,20c-5.6,9.7-11.6,22.1-11.8,33.6C1163.6,956.1,1168.2,956.1,1168.2,953.2
			L1168.2,953.2z"/>
		<path class="st3" d="M1165.5,958c-1.1-10.6-5-21.1-9.5-30.8s-10.6-21.3-20.3-26.6c-9-4.9-18.3-0.1-23.3,8.1
			c-6.5,10.4,0.8,21,8.8,27.9c11.9,10.3,26.6,17.2,40.9,23.4c2.7,1.2,5-2.8,2.3-3.9c-10.6-4.6-21.1-9.6-30.8-15.9
			c-7.5-4.9-20.4-13.5-19.2-24c1.1-9.1,11.5-16,19.7-11.2s13.4,14.8,17.3,23.1c4.4,9.3,8.4,19.7,9.5,30c0.3,2.9,4.9,2.9,4.6,0
			L1165.5,958z"/>
		<path class="st3" d="M1167.3,989.7c3.7-11.2,12.8-21,22.2-27.8c7.2-5.1,20.7-12.1,26.3-1.2c5.9,11.6-3.9,20.2-14,24
			c-11.3,4.3-24.5,5.3-36.1,2.1c-2.8-0.8-4,3.6-1.2,4.4c11.1,3,23.3,2.5,34.3-0.7c8.9-2.6,19.4-7.6,22.6-17.2c2.6-7.9-1-18.8-9-22
			c-9-3.6-19.4,2.3-26.5,7.6c-9.9,7.4-19,17.6-22.9,29.5C1162,991.3,1166.4,992.5,1167.3,989.7L1167.3,989.7z"/>
		<path class="st3" d="M1164.1,1008.3c-0.7-8.7-5.2-17.6-9.2-25.2c-4.8-9-11.2-19.2-20.4-24.3c-8.6-4.8-18.1-1.7-23.4,6.4
			c-6.4,9.8,1.3,19.5,9,25.5c11.9,9.3,26.7,15.5,41.1,19.8c2.8,0.8,4-3.6,1.2-4.4c-10.9-3.2-21.3-7.7-31.2-13.4
			c-6.8-4-20.3-12.1-17.9-21.8c2.2-9,12.5-12.1,19.8-7.6c7.7,4.8,13,13.4,17.3,21.2c3.8,7,8.4,15.6,9.1,23.8
			C1159.6,1011.2,1164.2,1011.2,1164.1,1008.3L1164.1,1008.3z"/>
		<path class="st3" d="M1160.5,1037.2c5.8-7.2,13.3-13,21.2-17.6c7.3-4.3,17.1-9,25.9-7.2c9.4,1.9,11.9,13.7,8.1,21.5
			c-4,8.2-14.2,9.9-22.4,9.7c-11.8-0.4-23.2-3.9-33.3-10c-2.5-1.5-4.8,2.4-2.3,3.9c10.5,6.3,22.3,9.9,34.5,10.6
			c9.5,0.4,20.7-1.6,26.4-10.1c5.4-8.1,4.7-20.9-3.3-27.1c-7.8-6-19-3.1-27.2,0.4c-11.6,4.9-22.9,12.8-30.8,22.6
			C1155.4,1036.2,1158.6,1039.5,1160.5,1037.2L1160.5,1037.2z"/>
		<path class="st3" d="M1154.2,1058.5c0.8-12.2-4.5-25.1-10.4-35.5c-5.3-9.2-13.9-20.7-25.5-21.4c-10.1-0.6-21,9.2-21,19.5
			c0,10.8,10.5,19,18.6,24.3c10.5,6.9,23,12.8,35.4,15.3c2.9,0.6,4.1-3.8,1.2-4.4c-8.9-1.8-17.5-5.5-25.5-9.7
			c-8.6-4.5-18.9-10.4-23.5-19.3s2.9-20.1,12.7-21c10.1-0.9,18.2,10.1,22.7,17.6c6,10,11.4,22.7,10.7,34.6
			C1149.4,1061.5,1153.9,1061.5,1154.2,1058.5L1154.2,1058.5z"/>
		<path class="st3" d="M1146.9,1087.9c4.8-5.7,12.6-9.4,19.3-12.4c8.3-3.6,18.4-7.2,27.6-5.4s13.9,12.1,10.2,20.5
			c-3.7,8.3-15.3,8.4-22.9,7.6c-12.6-1.5-24.5-6.3-34.6-13.9c-2.3-1.8-4.6,2.2-2.3,3.9c10.5,7.9,22.9,12.8,35.9,14.4
			c9.1,1.1,21.4,0.6,27-8.1c5.1-7.9,2.8-20.7-5-26c-8.4-5.8-20.5-3.3-29.4-0.4c-9.9,3.2-21.9,8.3-28.9,16.5
			C1141.8,1086.9,1145,1090.2,1146.9,1087.9L1146.9,1087.9z"/>
		<path class="st3" d="M1139.7,1104c0-9.5-4.3-19.1-8.8-27.2c-4.9-8.7-11.5-18.1-20.4-23.1c-7.6-4.3-15.8-3.1-21.3,3.8
			c-6.9,8.6-7.9,18.7,0.4,26.7c5.4,5.1,12.4,8.5,19.1,11.4c9.2,4,18.6,7.2,28.1,10.5c2.8,1,4-3.4,1.2-4.4
			c-13-4.5-26.6-8.7-38.4-15.8c-9.2-5.6-15.1-13.2-8.4-23.4c11.8-17.8,28.8,4.5,35.2,15.6c4.4,7.6,8.8,16.8,8.8,25.8
			C1135.1,1107,1139.7,1107,1139.7,1104L1139.7,1104z"/>
		<path class="st3" d="M1126.4,1142c3.8-8.3,13.5-13.7,21.4-17.2c8.5-3.8,20.2-7.6,29.4-4c8.2,3.2,10.6,14.9,4.9,21.5
			c-5.9,6.9-17.2,7.6-25.6,7.1c-10.4-0.5-22.5-3.1-30.6-10.1c-2.2-1.9-5.4,1.3-3.2,3.2c8.4,7.4,20.4,10.3,31.3,11.3
			c10.2,0.9,23.3,0.1,30.8-7.8c6.7-6.9,6.5-19.6-0.6-26.2c-8.1-7.4-21.5-5.1-30.9-2.1c-11.2,3.6-25.8,10.6-31,22
			C1121.3,1142.4,1125.2,1144.8,1126.4,1142L1126.4,1142z"/>
		<path class="st3" d="M1117.8,1154.7c0.2-12.4-3.4-25.2-8.8-36.3c-4.3-8.8-12.1-20-23.3-19c-9.1,0.9-20.5,9.2-20.4,19.1
			s9.3,18.1,16.6,23.5c9.6,7.1,21.6,13.5,33.6,14.9c2.9,0.3,2.9-4.2,0-4.6c-8.5-1-17-5.2-24.3-9.6c-7.6-4.5-16.3-10.6-20.1-18.9
			c-4.3-9.3,4-16.8,12.5-19.4c9.9-3,17,7.7,20.8,15.2c5.4,10.5,8.8,23.1,8.7,35C1113.3,1157.6,1117.8,1157.6,1117.8,1154.7
			L1117.8,1154.7z"/>
		<path class="st3" d="M1105.9,1185.6c6.9-8.3,18.2-12.7,28.6-14.4c8.4-1.4,22.2-1.4,25.4,8.6c1.5,4.7-0.3,11.2-4.2,14.3
			s-9.3,3.3-14,2.8c-13-1.3-25.7-7.8-36.4-15c-2.4-1.6-4.7,2.3-2.3,3.9c10.3,6.9,22,12.8,34.3,15c8.4,1.5,18.8,1.3,24.2-6.5
			c5-7.2,4.6-17.8-2.4-23.5c-7.2-5.8-17.8-5.6-26.4-4.1c-10.9,1.9-22.8,6.7-30.1,15.4C1100.8,1184.6,1104,1187.9,1105.9,1185.6
			L1105.9,1185.6z"/>
		<path class="st3" d="M1099.9,1191.7c0.3-8.4-4.2-17.1-8.6-24c-4.9-7.8-11.4-16-19.9-19.9c-7.1-3.3-14.3-1.7-18.9,4.8
			c-6.3,8.8-2.9,18.7,4.5,25.4c10.8,9.9,26.3,14.8,40.7,16c2.9,0.3,2.9-4.3,0-4.6c-13.6-1.1-29-6-38.7-15.9c-3.7-3.8-6.6-9-4.8-14.5
			c1.4-4.3,5.1-8.4,9.8-8.5c8.9-0.2,16.8,9.8,21.3,16.3c4.8,6.9,10.4,16.1,10,24.9C1095.2,1194.6,1099.8,1194.6,1099.9,1191.7
			L1099.9,1191.7z"/>
		<path class="st3" d="M1155.8,853.4c7.4,51.8,11,104.5,4.4,156.5c-5.8,45.7-20.1,89.6-38.5,131.7c-12,27.3-25.5,54-39.3,80.5
			c-1.4,2.6,2.6,4.9,3.9,2.3c23.5-45,46.4-90.7,61.8-139.2c14-44.7,20.9-91.3,20.2-138.2c-0.3-31.7-3.5-63.4-8-94.8
			C1159.8,849.3,1155.4,850.5,1155.8,853.4L1155.8,853.4z"/>
		<path class="st3" d="M1169.8,952.5c9.6-9.9,19.2-20.3,24.9-33c1.2-2.7-2.7-5-3.9-2.3c-5.6,12.4-14.8,22.5-24.2,32.1
			C1164.6,951.4,1167.8,954.6,1169.8,952.5L1169.8,952.5z"/>
		<path class="st3" d="M1163.1,951.6c-7-3.3-11.3-10.2-15.8-16.2c-4.7-6.3-10.5-11.3-15.8-17.1c-2-2.2-5.2,1.1-3.2,3.2
			c6.1,6.6,12.3,12.4,17.7,19.6c4.1,5.6,8.5,11.3,14.9,14.4C1163.5,956.8,1165.8,952.9,1163.1,951.6L1163.1,951.6z"/>
		<path class="st3" d="M1167.9,991.3c9.6-9.9,23.2-14.2,33.9-22.7c2.3-1.8-1-5-3.2-3.2c-10.7,8.5-24.2,12.8-33.9,22.7
			C1162.6,990.1,1165.8,993.4,1167.9,991.3z"/>
		<path class="st3" d="M1161.2,1006.1c-10.4-12.6-21.5-24.7-34.8-34.2c-2.4-1.7-4.7,2.3-2.3,3.9c13,9.3,23.8,21.3,33.9,33.5
			C1159.9,1011.6,1163.1,1008.4,1161.2,1006.1L1161.2,1006.1z"/>
		<path class="st3" d="M1161.1,1038.7c12.8-3.6,26.2-4.8,39-8.5c2.8-0.8,1.6-5.2-1.2-4.4c-12.8,3.6-26.2,4.8-39,8.5
			C1157,1035.1,1158.2,1039.5,1161.1,1038.7z"/>
		<path class="st3" d="M1152.5,1055.2c-11.3-11.7-21.8-24-33.3-35.3c-2.1-2.1-5.3,1.2-3.2,3.2c11.6,11.3,22.1,23.7,33.3,35.3
			C1151.3,1060.6,1154.6,1057.4,1152.5,1055.2z"/>
		<path class="st3" d="M1148.3,1088.7c13.8-0.8,27.5-2.7,41.1-4.8c2.9-0.4,1.7-4.8-1.2-4.4c-13.2,2-26.5,3.8-39.9,4.6
			C1145.4,1084.3,1145.4,1088.9,1148.3,1088.7L1148.3,1088.7z"/>
		<path class="st3" d="M1138.4,1100.8c-5.5-5.8-10.7-11.9-16.5-17.4c-5.6-5.3-11.9-9.9-17-15.7c-2-2.2-5.2,1-3.2,3.2
			c5.1,5.8,11.4,10.4,17,15.7c5.8,5.5,11.1,11.6,16.5,17.4C1137.1,1106.2,1140.4,1103,1138.4,1100.8z"/>
		<path class="st3" d="M1127.2,1142.2c14-0.1,27.6-5,41.6-4.6c2.9,0.1,2.9-4.5,0-4.6c-14.1-0.4-27.6,4.5-41.6,4.6
			C1124.3,1137.6,1124.3,1142.2,1127.2,1142.2z"/>
		<path class="st3" d="M1116.5,1152.4c-4.8-5.7-10.3-10.5-15.5-15.7c-5.4-5.5-10.1-11.7-15.9-16.8c-2.2-1.9-5.4,1.3-3.2,3.2
			c5.8,5.1,10.4,11.4,15.9,16.8c5.2,5.2,10.8,10.1,15.5,15.7C1115.2,1157.9,1118.4,1154.6,1116.5,1152.4z"/>
		<path class="st3" d="M1106.3,1185.3c12.4,1.6,25.1-2.3,37.3,1.1c2.8,0.8,4.1-3.6,1.2-4.4c-12.7-3.5-25.7,0.3-38.6-1.3
			C1103.4,1180.3,1103.4,1184.9,1106.3,1185.3L1106.3,1185.3z"/>
		<path class="st3" d="M1098.9,1188.7c-9.1-9.6-20.3-16.8-29.5-26.3c-2.1-2.1-5.3,1.1-3.2,3.2c9.2,9.4,20.4,16.7,29.5,26.3
			C1097.7,1194.1,1101,1190.9,1098.9,1188.7z"/>
		<path class="st3" d="M64.3,773.4c18.5-7,32.4-20.6,31.6-41.4c-0.7-20.6-12-40.3-23.1-57c-6.6-10-13.8-19.4-21.2-28.7
			c-0.9-0.9-2.3-0.9-3.2,0c-16.8,17.6-28.2,41.3-33.5,64.9c-4.1,18.7-5.4,44.1,12,56.7C37.6,775.7,51.7,775.5,64.3,773.4
			c2.9-0.5,1.6-4.9-1.2-4.4c-10.7,1.8-22.9,2.2-32.4-3.9c-7.5-4.8-11.4-13-13-21.5c-3.9-21.1,3.7-44.3,12.9-63.1
			c5.5-11.2,12.3-21.9,20.9-30.9h-3.2c15.5,19.3,31.3,40.3,39.3,64c3.4,10.1,5.4,21.3,2,31.7c-3.9,12.2-15,19.5-26.6,23.9
			C60.3,770,61.5,774.4,64.3,773.4L64.3,773.4z"/>
		<path class="st3" d="M79.7,831.5c-7.7-20.6-2.7-41.3,12.6-56.9c15.8-16.2,37.9-25.3,59.9-29.4l-2.9-2.2c1.7,21.5,0.2,45.4-11,64.5
			c-5.1,8.8-12.6,16.1-21.9,20.2c-12,5.3-25.6,4.8-38.3,2.3c-2.9-0.6-4.1,3.8-1.2,4.4c19.2,3.8,39.7,2.4,54.8-11.3
			c13.2-12,19.1-30,21.4-47.1c1.4-10.9,1.7-22,0.7-33c0-1.3-1.1-2.3-2.4-2.3c-0.2,0-0.3,0-0.5,0.1c-23.4,4.4-47.4,14.5-63.7,32.5
			c-15.1,16.6-19.9,38.3-12,59.5C76.2,835.4,80.6,834.2,79.7,831.5L79.7,831.5z"/>
		<path class="st3" d="M97.2,903.5c-6.3-17.9-17.5-34.2-36.3-40.2c-15.5-4.9-32.5-2.4-47.9,1.8c-8.2,2.2-16.2,5-24.3,7.8
			c-1.2,0.4-1.9,1.7-1.6,2.9c0,0.2,0.1,0.3,0.2,0.5c7.8,16.3,20.6,30.8,35,41.5c13.9,10.3,32.4,18,49.6,11.2
			c11.1-4.4,19.1-13.7,25-23.8c1.5-2.5-2.4-4.8-3.9-2.3c-6.4,10.9-15.4,20.9-28.3,23.5c-10.3,2-20.8-1.2-29.8-6
			C16.4,910.3,0.4,892.9-8.7,874l-1.4,3.4c17.3-5.8,35.1-12.4,53.6-12c9.7,0.2,19.4,2.5,27.5,8c10.9,7.4,17.5,19.3,21.7,31.4
			C93.8,907.6,98.2,906.4,97.2,903.5L97.2,903.5z"/>
		<path class="st3" d="M125.5,978.3c-7.2-17.6-7.6-36.1,3.3-52.3c14-20.8,39.1-33.1,61.6-42.4l-2.9-2.2c0.5,21.9,1.5,46.5-8.1,66.9
			c-10.4,22.3-33.1,28.7-56.1,28.3c-2.9,0-2.9,4.5,0,4.6c18.6,0.3,38.7-3.2,51.7-17.8c11.4-12.8,15-30.3,16.4-46.8
			c0.9-11.7,1.1-23.5,0.6-35.3c0-1.3-1.5-2.8-2.9-2.2c-23.7,9.8-49.5,22.6-64.3,44.5c-11.5,17.1-11.4,37.2-3.8,55.8
			C122.2,982.2,126.6,981,125.5,978.3z"/>
		<path class="st3" d="M131.1,994.3c-13.3-38-60.1-45-94.1-33c-10.1,3.5-19.4,8.9-27.5,15.9c-0.9,0.9-0.9,2.3,0,3.2
			c10.9,12.4,22.7,24.1,36.6,33.1c10.7,6.9,23.2,13,36.2,13.5c20.4,0.8,46.4-9.2,48.8-32.1c0.3-2.9-4.3-2.9-4.6,0
			c-2.3,21.3-29.2,29.2-47.3,27.3c-12.3-1.2-24.2-8-34.1-14.9C33,999,22.5,988.3,12.7,977.3v3.2c31.1-27.1,97.8-31.1,114,15.1
			C127.7,998.3,132.1,997.1,131.1,994.3L131.1,994.3z"/>
		<path class="st3" d="M168.5,1064.9c-6.5-10.1-14.9-19.1-26.1-23.8c-8.8-3.7-18.3-4.2-27.7-2.7c-19.3,3.3-36.3,14.5-52.6,24.9
			c-1.1,0.7-1.4,2.1-0.8,3.2c0.1,0.2,0.2,0.3,0.3,0.4c17.3,16.8,40.4,32.6,65.5,32.7c20.8,0,35.9-13.3,41.5-32.9
			c0.8-2.8-3.6-4-4.4-1.2c-5.4,18.6-19.8,30.4-39.5,29.4c-23.1-1.1-44-15.7-60-31.3l-0.5,3.6c14.7-9.4,29.8-19.4,47-23.5
			c8.9-2.1,18.3-2.4,27,0.7c11.3,4,19.7,12.9,26.1,22.8C166.1,1069.7,170.1,1067.4,168.5,1064.9L168.5,1064.9z"/>
		<path class="st3" d="M48,680.9c5.8,56.3,16.5,112.3,30.4,167.2c15.4,60.9,34.9,121.8,63.8,177.8c13.7,26.6,29.9,52.5,50.7,74.1
			c2,2.1,5.3-1.1,3.2-3.2c-18.2-18.9-32.7-41.2-45.2-64.2c-14.5-26.8-26.5-54.9-36.9-83.4c-21.5-58.8-37-119.8-48.5-181.3
			c-5.4-28.8-9.9-57.9-12.9-87.1C52.3,678,47.8,677.9,48,680.9L48,680.9z"/>
		<path class="st3" d="M83.2,851.7c-21.7-14.8-43.6-29.3-65.2-44.2c-2.4-1.7-4.7,2.3-2.3,3.9c21.7,14.8,43.6,29.3,65.3,44.2
			C83.4,857.3,85.7,853.3,83.2,851.7L83.2,851.7z"/>
		<path class="st3" d="M99.5,904c13.2-21.6,31.6-38.7,53.5-51.2c2.6-1.5,0.3-5.4-2.3-3.9c-22.6,12.9-41.6,30.5-55.2,52.8
			C94,904.3,98,906.6,99.5,904z"/>
		<path class="st3" d="M161.7,1051.7c4.3-11.2,9.8-21.9,16.4-31.9c6.6-10.3,14.4-21.3,25.1-27.8c2.5-1.5,0.2-5.5-2.3-3.9
			c-10.9,6.7-19,17.7-25.9,28.2c-7.2,10.7-13.1,22.2-17.6,34.2C156.3,1053.3,160.7,1054.5,161.7,1051.7L161.7,1051.7z"/>
		<path class="st3" d="M80.4,832.9c17.7-23,33.3-47.9,55.8-66.6c2.3-1.9-1-5.1-3.2-3.2c-22.8,18.9-38.6,44.3-56.6,67.5
			C74.7,832.9,78.7,835.2,80.4,832.9z"/>
		<path class="st3" d="M94.9,902c-13.3-2.4-26.2-6.6-39.2-10.1c-12.8-3.5-26.1-4.7-38.9-8.2c-2.8-0.8-4,3.6-1.2,4.4
			c12.8,3.6,26.1,4.8,38.9,8.2c13,3.5,25.9,7.7,39.2,10.1C96.6,906.9,97.8,902.5,94.9,902z"/>
		<path class="st3" d="M127.4,979.1c13.3-23,24-47.9,42.2-67.5c2-2.2-1.2-5.4-3.2-3.2c-18.5,19.9-29.5,45.2-42.9,68.5
			C122,979.3,125.9,981.6,127.4,979.1L127.4,979.1z"/>
		<path class="st3" d="M127.2,992.6c-27.7-4.3-55-12.6-83.4-11.5c-2.9,0.1-2.9,4.7,0,4.6c27.9-1.1,54.8,7.1,82.2,11.3
			C128.8,997.4,130.1,993,127.2,992.6z"/>
		<path class="st3" d="M165.6,1064c-24.7-2.8-50.2-5.7-74.9-1.2c-2.9,0.5-1.7,4.9,1.2,4.4c24.2-4.5,49.4-1.4,73.6,1.3
			C168.5,1068.9,168.5,1064.3,165.6,1064L165.6,1064z"/>
		<path class="st3" d="M50.1,827.7c-1.8-11.6-5.4-22.8-7.3-34.4c-0.5-2.9-4.9-1.7-4.4,1.2c1.9,11.6,5.5,22.8,7.3,34.4
			C46.1,831.8,50.6,830.6,50.1,827.7z"/>
		<path class="st3" d="M116.8,877.9c-0.8-8.5-2.2-17-2.6-25.6c-0.2-2.9-4.7-2.9-4.6,0c0.4,8.6,1.9,17,2.6,25.6
			C112.4,880.8,117,880.8,116.8,877.9z"/>
		<path class="st3" d="M124.2,876.3c8.5,2.5,17.6,2.8,26.3,4.4c2.9,0.5,4.1-3.9,1.2-4.4c-8.7-1.6-17.8-1.9-26.3-4.4
			C122.6,871,121.4,875.4,124.2,876.3z"/>
		<path class="st3" d="M178.9,1014.7c-1.3-8.2-3.3-16.4-4.8-24.6c-0.5-2.9-4.9-1.7-4.4,1.2c1.5,8.2,3.4,16.3,4.8,24.6
			C175,1018.8,179.4,1017.5,178.9,1014.7z"/>
		<path class="st3" d="M170.9,1029.8c12.8,0.3,25.2-2.8,37.8-5c2.9-0.5,1.7-4.9-1.2-4.4c-12.1,2.1-24.1,5.1-36.5,4.8
			C168,1025.1,168,1029.7,170.9,1029.8L170.9,1029.8z"/>
		<path class="st3" d="M63.9,694.7c-3.6,3-7.2,6-11,8.8c-2.4,1.7-0.1,5.7,2.3,3.9c4.1-3,8-6.2,11.9-9.5
			C69.4,696,66.2,692.8,63.9,694.7L63.9,694.7z"/>
		<path class="st3" d="M56.2,716.6c-5.8-3.4-11.6-7.1-17.2-10.8c-2.5-1.6-4.8,2.3-2.3,3.9c5.7,3.7,11.4,7.4,17.2,10.8
			C56.4,722.1,58.7,718.1,56.2,716.6z"/>
		<path class="st3" d="M58.3,731.7l16.7-12.6c2.3-1.8,0-5.7-2.3-3.9L56,727.8C53.7,729.5,56,733.5,58.3,731.7L58.3,731.7z"/>
		<path class="st3" d="M60.1,742.7c-7.1-3.8-14.5-7.1-22-10.1c-2.8-1-4,3.4-1.2,4.4c7.2,2.8,14.1,6,20.9,9.6
			C60.4,748,62.7,744,60.1,742.7L60.1,742.7z"/>
		<path class="st3" d="M63,756.3c5.6-3.3,10.5-7.5,15.8-11.1c2.4-1.7,0.1-5.6-2.3-3.9c-5.3,3.7-10.2,7.9-15.8,11.1
			C58.2,753.8,60.5,757.8,63,756.3z"/>
		<path class="st3" d="M117.1,782.3l-3.5-13.1c-0.8-2.8-5.2-1.6-4.4,1.2l3.5,13.1C113.4,786.4,117.9,785.2,117.1,782.3z"/>
		<path class="st3" d="M109.4,793.6c6.6-0.5,13.2-0.5,19.8-0.4c2.9,0.1,2.9-4.5,0-4.6c-6.6-0.1-13.2,0-19.8,0.4
			C106.5,789.3,106.4,793.8,109.4,793.6z"/>
		<path class="st3" d="M101.6,802.4c-0.3-5.9-1.1-11.7-2.3-17.5c-0.5-2.9-4.9-1.7-4.4,1.2c1.1,5.4,1.8,10.8,2.1,16.3
			C97.1,805.3,101.7,805.3,101.6,802.4L101.6,802.4z"/>
		<path class="st3" d="M94.7,813.7c6.8-0.5,13.6-0.5,20.4-0.2c2.9,0.1,2.9-4.5,0-4.6c-6.8-0.4-13.6-0.3-20.4,0.2
			C91.8,809.4,91.7,814,94.7,813.7z"/>
		<path class="st3" d="M40.6,887.8c-2.2-4.6-3.9-9.4-6.1-14c-1.2-2.7-5.2-0.3-3.9,2.3c2.1,4.6,3.9,9.4,6.1,14
			C37.9,892.8,41.9,890.4,40.6,887.8z"/>
		<path class="st3" d="M48.3,891.9c-4.9,3.3-9.8,6.7-14.7,10.1c-2.4,1.7-0.1,5.6,2.3,3.9c4.9-3.4,9.8-6.7,14.7-10.1
			C53,894.2,50.7,890.2,48.3,891.9z"/>
		<path class="st3" d="M63.9,894.8c-1.9-5.3-3.1-10.8-4.9-16.1c-1-2.8-5.4-1.6-4.4,1.2c1.9,5.3,3,10.8,5,16.1
			C60.6,898.8,65,897.6,63.9,894.8L63.9,894.8z"/>
		<path class="st3" d="M71.7,898.3c-4.5,4.2-9.3,8.1-13.5,12.7c-2,2.2,1.2,5.4,3.2,3.2c4.2-4.5,9-8.4,13.5-12.7
			C77.1,899.5,73.8,896.3,71.7,898.3z"/>
		<path class="st3" d="M156.9,923.4c-1.8-2.9-2.4-6.2-3.8-9.2c-1.2-2.7-5.2-0.3-3.9,2.3c1.4,3.1,2.1,6.3,3.8,9.2
			C154.5,928.2,158.4,925.9,156.9,923.4z"/>
		<path class="st3" d="M151.3,937.7c5.3-1,10.5-2.3,15.8-3.3c2.9-0.5,1.7-4.9-1.2-4.4c-5.3,1-10.5,2.3-15.8,3.3
			C147.1,933.8,148.4,938.2,151.3,937.7z"/>
		<path class="st3" d="M144.5,946.2c-1.8-5-3.6-9.9-5.9-14.7c-1.2-2.7-5.2-0.3-3.9,2.3c2.1,4.4,3.7,9,5.4,13.6
			C141.1,950.2,145.5,949,144.5,946.2L144.5,946.2z"/>
		<path class="st3" d="M137.1,962.3c6.6-1.6,13-3.6,19.3-6c2.7-1,1.5-5.5-1.2-4.4c-6.3,2.4-12.7,4.4-19.3,6
			C133,958.6,134.2,963,137.1,962.3z"/>
		<path class="st3" d="M66.8,982.2c-2.5-4.2-4.8-8.6-7.2-12.9c-1.4-2.6-5.3-0.3-3.9,2.3c2.3,4.3,4.7,8.7,7.2,12.9
			C64.4,987.1,68.4,984.8,66.8,982.2z"/>
		<path class="st3" d="M72.4,984.6c-3.2,4.3-7.4,7.9-11.4,11.4c-2.2,2,1,5.2,3.2,3.2c4.3-3.8,8.7-7.7,12.1-12.3
			C78.1,984.5,74.1,982.2,72.4,984.6L72.4,984.6z"/>
		<path class="st3" d="M91.9,986.2c-2.3-4.9-5.1-9.6-7.8-14.2c-1.5-2.5-5.4-0.2-3.9,2.3c2.7,4.7,5.4,9.4,7.8,14.2
			C89.2,991.2,93.1,988.8,91.9,986.2z"/>
		<path class="st3" d="M100,989.5c-3.4,4.8-7,9.8-11.4,13.5c-2.2,1.9,1,5.1,3.2,3.2c4.8-4,8.6-9.4,12.2-14.5
			C105.6,989.3,101.7,987.1,100,989.5L100,989.5z"/>
		<path class="st3" d="M115.8,991.2c-2.2-3.7-4.1-7.5-5.9-11.4c-1.3-2.7-5.2-0.3-3.9,2.3c1.8,3.9,3.7,7.7,5.9,11.4
			C113.4,996,117.3,993.7,115.8,991.2z"/>
		<path class="st3" d="M114.7,1060.5c-2.5-3.1-5.4-5.8-7.9-8.9c-1.9-2.3-5.1,1-3.2,3.2c2.5,3.1,5.4,5.8,7.9,8.9
			C113.4,1066,116.6,1062.8,114.7,1060.5z"/>
		<path class="st3" d="M120.3,1063.6c-3,4.8-6.3,9.5-9.7,14c-1.7,2.4,2.2,4.7,3.9,2.3c3.3-4.6,6.7-9.2,9.7-14
			C125.7,1063.3,121.8,1061,120.3,1063.6z"/>
		<path class="st3" d="M138.5,1061.5c-2.3-3.7-4.9-7.1-7.2-10.8c-1.6-2.5-5.5-0.2-3.9,2.3c2.3,3.7,4.9,7.1,7.2,10.8
			C136.1,1066.3,140.1,1064,138.5,1061.5z"/>
		<path class="st3" d="M144.9,1063.5c-2.2,4.1-5.4,7.5-8.4,11.1c-1.9,2.2,1.3,5.5,3.2,3.2c3.3-3.8,6.7-7.5,9.1-12
			C150.3,1063.2,146.3,1060.8,144.9,1063.5L144.9,1063.5z"/>
		<path class="st4" d="M35.8,785c12.8-7.4,22.8,12.1,10.8,19.1C33.9,811.4,22.4,792.2,35.8,785"/>
		<path class="st4" d="M107.1,840.8c12.8-7.4,22.8,12.1,10.8,19.1C105.2,867.2,93.7,848,107.1,840.8"/>
		<path class="st4" d="M148.4,836.6c14-8,24.8,13.2,11.7,20.8C146.3,865.4,133.8,844.4,148.4,836.6"/>
		<path class="st4" d="M9.1,798.8c14-8,24.8,13.2,11.7,20.8C7.1,827.7-5.5,806.7,9.1,798.8"/>
		<path class="st4" d="M145.6,868.1c12.8-7.4,22.8,12.1,10.7,19.1C143.8,894.5,132.2,875.3,145.6,868.1"/>
		<path class="st4" d="M199.5,977.9c14-8,24.8,13.2,11.7,20.8C197.4,1006.7,184.9,985.7,199.5,977.9"/>
		<path class="st4" d="M201.1,1015.7c12.8-7.3,22.8,12.1,10.8,19.1C199.2,1042.1,187.7,1022.9,201.1,1015.7"/>
		<path class="st4" d="M166,978.3c12.8-7.3,22.8,12.1,10.8,19.1C164.1,1004.7,152.6,985.4,166,978.3"/>
		<path class="st3" d="M64.6,411.2c-8.7,66.4-15.8,133-26.3,199.1c-0.5,2.9,3.9,4.1,4.4,1.2C53.3,545,60.4,478,69.1,411.2
			C69.5,408.3,64.9,408.3,64.6,411.2L64.6,411.2z"/>
		<path class="st3" d="M132.8,447.1C79.6,488,27.3,530.2-27,569.7c-2.4,1.7-0.1,5.7,2.3,3.9C29.6,534.2,81.9,492,135.1,451
			C137.4,449.2,135.1,445.3,132.8,447.1L132.8,447.1z"/>
		<path class="st3" d="M153.5,521.4c-66.4-8.7-133-15.8-199.1-26.3c-2.9-0.5-4.1,3.9-1.2,4.4c66.5,10.6,133.5,17.7,200.3,26.5
			C156.4,526.3,156.4,521.8,153.5,521.4z"/>
		<path class="st3" d="M117.6,589.7C76.7,536.4,34.5,484.1-5,429.8c-1.7-2.4-5.7-0.1-3.9,2.3C30.5,486.5,72.7,538.7,113.6,592
			C115.4,594.3,119.4,592,117.6,589.7L117.6,589.7z"/>
		<path class="st3" d="M78.3,412.8c-5.6,4.5-10.2,10-15.5,14.9l3.6,0.5c-4.1-6.3-7.3-13.1-11.7-19.1c-1.7-2.3-5.7-0.1-3.9,2.3
			c4.5,6,7.6,12.8,11.7,19.1c0.7,1.1,2.1,1.4,3.2,0.8c0.1-0.1,0.3-0.2,0.4-0.3c5.3-4.9,9.9-10.4,15.5-14.9
			C83.8,414.2,80.5,411,78.3,412.8L78.3,412.8z"/>
		<path class="st3" d="M84.9,427.4c-8.9,5.4-17,12.6-24.9,19.4l3.6,0.5c-5.5-8-11.1-16-16.1-24.3c-1.5-2.5-5.5-0.2-3.9,2.3
			c5,8.3,10.6,16.3,16.1,24.3c0.7,1.1,2.1,1.4,3.2,0.8c0.1-0.1,0.3-0.2,0.4-0.3c7.7-6.5,15.4-13.4,24-18.6
			C89.8,429.8,87.5,425.9,84.9,427.4L84.9,427.4z"/>
		<path class="st3" d="M77.4,453.5c-7,3.8-13.4,8.9-19.7,13.7l3.1,0.8c-4-6.5-8.3-13.3-13.9-18.5c-2.2-2-5.4,1.2-3.2,3.2
			c5.3,4.9,9.4,11.4,13.2,17.5c0.6,1.1,2,1.4,3.1,0.8c6.4-4.8,12.8-9.8,19.7-13.7C82.3,456,80,452.1,77.4,453.5L77.4,453.5z"/>
		<path class="st3" d="M56.1,610.1c-4.3-5.8-7.3-12.3-11.1-18.4c-0.7-1.1-2.1-1.4-3.2-0.8c-0.1,0.1-0.3,0.2-0.4,0.3
			c-5.5,5-10.4,10.8-16.2,15.5c-2.3,1.8,1,5,3.2,3.2c5.9-4.7,10.7-10.4,16.2-15.5L41,594c3.8,6,6.8,12.6,11.1,18.4
			C53.8,614.7,57.8,612.4,56.1,610.1L56.1,610.1z"/>
		<path class="st3" d="M65.5,596.7c-7-7.2-12.7-16-18.4-24.2c-0.7-1.1-2.1-1.4-3.2-0.8c-0.1,0.1-0.3,0.2-0.4,0.3
			c-7.4,6.3-14.9,12.5-21.8,19.3c-2.1,2.1,1.1,5.3,3.2,3.2c6.9-6.8,14.4-13,21.8-19.3l-3.6-0.5c6,8.5,11.9,17.6,19.1,25.1
			C64.3,602.1,67.6,598.9,65.5,596.7L65.5,596.7z"/>
		<path class="st3" d="M65,569.6c-5.7-5.5-10.6-12-15.5-18.3c-0.9-0.9-2.3-0.9-3.2,0c-5.2,5-10.8,10.2-17.2,13.6
			c-2.6,1.4-0.3,5.3,2.3,3.9c6.8-3.5,12.7-9,18.2-14.3h-3.2c4.9,6.2,9.8,12.8,15.5,18.3C63.9,574.8,67.2,571.6,65,569.6L65,569.6z"
			/>
		<path class="st3" d="M141,458.3c-7.1-0.8-14.3-0.1-21.5-0.4l2.2,2.9c1.6-7.3,4.2-14.4,5.3-21.8c0.4-2.9-4-4.1-4.4-1.2
			c-1.1,7.4-3.7,14.5-5.3,21.8c-0.3,1.2,0.4,2.5,1.7,2.8c0.2,0,0.3,0.1,0.5,0.1c7.2,0.3,14.3-0.4,21.5,0.4
			C143.9,463.2,143.9,458.6,141,458.3L141,458.3z"/>
		<path class="st3" d="M135.4,473.3c-10.1-2.5-21-3.1-31.3-4l2.2,2.9c1.8-9.5,3.4-19.2,5.8-28.6c0.7-2.9-3.7-4.1-4.4-1.2
			c-2.4,9.4-4,19-5.8,28.6c-0.3,1.2,0.5,2.5,1.7,2.8c0.2,0,0.3,0.1,0.5,0.1c10,0.8,20.4,1.4,30.1,3.8
			C137,478.4,138.2,474,135.4,473.3L135.4,473.3z"/>
		<path class="st3" d="M111.6,486.5c-7.6-2.2-15.7-3.1-23.6-4.3l1.6,2.8c1.8-7.4,3.6-15.3,3.2-22.9c-0.1-2.9-4.7-2.9-4.6,0
			c0.3,7.2-1.4,14.7-3.1,21.7c-0.3,1.2,0.4,2.5,1.6,2.8c7.9,1.1,16,2.1,23.6,4.3C113.2,491.7,114.4,487.3,111.6,486.5z"/>
		<path class="st3" d="M-14.3,582.1c1.1-7.1,3.6-13.9,5.1-20.9c0.3-1.2-0.4-2.5-1.7-2.8c-0.2,0-0.3-0.1-0.5-0.1
			c-7.5-0.4-15,0.3-22.4-0.5c-2.9-0.3-2.9,4.2,0,4.6c7.5,0.8,14.9,0.2,22.4,0.5l-2.2-2.9c-1.6,7-4.1,13.8-5.1,20.9
			C-19.1,583.8-14.7,585-14.3,582.1z"/>
		<path class="st3" d="M1.9,579.3c0.2-10,2.3-20.2,4.1-30.1c0.3-1.2-0.5-2.5-1.7-2.8c-0.2,0-0.3-0.1-0.5-0.1
			c-9.7-0.8-19.4-1.7-29.1-1.8c-2.9,0-2.9,4.5,0,4.6c9.7,0.1,19.4,1,29.1,1.8L1.6,548c-1.8,10.3-4,20.9-4.3,31.3
			C-2.7,582.2,1.8,582.2,1.9,579.3L1.9,579.3z"/>
		<path class="st3" d="M20.7,559.8c-0.1-8,1-16,1.9-23.9c0-1.3-1-2.3-2.3-2.3c-7.2-0.2-14.9-0.5-21.8-2.6c-2.8-0.9-4,3.5-1.2,4.4
			c7.3,2.3,15.4,2.6,23,2.8l-2.3-2.3c-0.9,7.9-2.1,16-1.9,23.9C16.3,562.7,20.8,562.8,20.7,559.8L20.7,559.8z"/>
		<path class="st3" d="M151.9,535.1c-4.5-5.6-10-10.2-14.9-15.5l-0.5,3.6c6.3-4.1,13.1-7.2,19.1-11.7c2.3-1.7,0.1-5.7-2.3-3.9
			c-6,4.5-12.8,7.6-19.1,11.7c-1.1,0.7-1.4,2.1-0.8,3.2c0.1,0.1,0.2,0.3,0.3,0.4c4.9,5.3,10.4,9.9,14.9,15.5
			C150.5,540.7,153.7,537.4,151.9,535.1L151.9,535.1z"/>
		<path class="st3" d="M137.3,541.7c-5.4-8.9-12.6-17-19.3-24.9l-0.5,3.6c8-5.5,16-11.1,24.3-16.1c2.5-1.5,0.2-5.5-2.3-3.9
			c-8.3,5-16.3,10.6-24.3,16.1c-1.1,0.7-1.4,2.1-0.8,3.2c0.1,0.1,0.2,0.3,0.3,0.4c6.5,7.7,13.4,15.4,18.6,24
			C134.9,546.6,138.8,544.3,137.3,541.7L137.3,541.7z"/>
		<path class="st3" d="M111.2,534.3c-3.8-7-8.9-13.4-13.7-19.7l-0.8,3.1c6.5-4,13.3-8.3,18.5-13.9c2-2.2-1.2-5.4-3.2-3.2
			c-4.9,5.3-11.4,9.4-17.6,13.2c-1.1,0.6-1.4,2-0.8,3.1c4.8,6.4,9.8,12.8,13.7,19.7C108.6,539.1,112.6,536.8,111.2,534.3
			L111.2,534.3z"/>
		<path class="st3" d="M-45.4,512.9c5.8-4.3,12.3-7.3,18.4-11.1c1.1-0.7,1.4-2.1,0.8-3.2c-0.1-0.1-0.2-0.3-0.3-0.4
			c-5-5.5-10.8-10.4-15.5-16.2c-1.8-2.3-5,1-3.2,3.2c4.7,5.9,10.4,10.7,15.5,16.2l0.5-3.6c-6,3.8-12.6,6.9-18.4,11.2
			C-50.1,510.7-47.8,514.7-45.4,512.9L-45.4,512.9z"/>
		<path class="st3" d="M-32,522.4c7.2-7,16-12.7,24.2-18.4c1.1-0.7,1.4-2.1,0.8-3.2c-0.1-0.1-0.2-0.3-0.3-0.4
			c-6.3-7.4-12.6-14.9-19.3-21.8c-2.1-2.1-5.3,1.1-3.2,3.2c6.8,6.9,13,14.4,19.3,21.8l0.5-3.6c-8.5,6-17.6,11.9-25.1,19.1
			C-37.3,521.1-34.1,524.4-32,522.4z"/>
		<path class="st3" d="M-4.9,521.9c5.5-5.7,12-10.6,18.3-15.5c0.9-0.9,0.9-2.3,0-3.2c-5-5.2-10.2-10.8-13.6-17.3
			c-1.4-2.6-5.3-0.3-3.9,2.3c3.5,6.8,9,12.7,14.3,18.2v-3.2c-6.2,4.9-12.8,9.8-18.3,15.5C-10.1,520.8-7,524-4.9,521.9z"/>
		<path class="st3" d="M106.4,597.8c0.8-7.1,0.1-14.3,0.4-21.5l-2.9,2.2c7.3,1.6,14.4,4.2,21.8,5.3c2.9,0.4,4.1-4,1.2-4.4
			c-7.4-1.1-14.5-3.7-21.8-5.3c-1.2-0.3-2.5,0.4-2.8,1.7c0,0.2-0.1,0.3-0.1,0.5c-0.3,7.2,0.4,14.3-0.4,21.5
			C101.5,600.8,106.1,600.7,106.4,597.8z"/>
		<path class="st3" d="M91.4,592.2c2.5-10.2,3.1-21,4-31.3l-2.9,2.2c9.5,1.8,19.2,3.4,28.6,5.8c2.8,0.7,4.1-3.7,1.2-4.4
			c-9.4-2.4-19-4-28.6-5.8c-1.2-0.3-2.5,0.5-2.8,1.7c0,0.2-0.1,0.3-0.1,0.5c-0.8,10-1.4,20.4-3.8,30.1
			C86.3,593.8,90.6,595,91.4,592.2L91.4,592.2z"/>
		<path class="st3" d="M78.2,568.4c2.2-7.6,3.2-15.8,4.3-23.6l-2.8,1.6c7.4,1.8,15.3,3.6,22.9,3.3c2.9-0.1,2.9-4.7,0-4.6
			c-7.3,0.3-14.7-1.4-21.7-3.1c-1.2-0.3-2.5,0.4-2.8,1.6c-1.1,7.9-2.1,16-4.3,23.6C73,570.1,77.4,571.2,78.2,568.4L78.2,568.4z"/>
		<path class="st3" d="M-17.5,442.6c7.1,1.1,13.9,3.6,20.9,5.1c1.2,0.3,2.5-0.4,2.8-1.7c0-0.2,0.1-0.3,0.1-0.5
			c0.4-7.5-0.3-15,0.6-22.4c0.3-2.9-4.2-2.9-4.6,0c-0.8,7.5-0.2,14.9-0.5,22.4l2.9-2.2c-7-1.6-13.8-4.1-20.9-5.1
			C-19.1,437.7-20.4,442.2-17.5,442.6L-17.5,442.6z"/>
		<path class="st3" d="M-14.7,458.7c10,0.2,20.2,2.3,30.1,4.1c1.2,0.3,2.5-0.5,2.8-1.7c0-0.2,0.1-0.3,0.1-0.5
			c0.8-9.7,1.6-19.4,1.8-29.1c0-2.9-4.5-2.9-4.6,0c-0.1,9.7-1,19.4-1.8,29.1l2.9-2.2c-10.3-1.8-20.9-4-31.3-4.3
			C-17.6,454.1-17.6,458.7-14.7,458.7L-14.7,458.7z"/>
		<path class="st3" d="M4.9,477.5c8-0.1,16,1,23.9,1.9c1.3,0,2.3-1,2.3-2.3c0.2-7.2,0.5-14.9,2.6-21.8c0.9-2.8-3.5-4-4.4-1.2
			c-2.3,7.3-2.6,15.4-2.8,23l2.3-2.3c-7.9-0.9-16-2.1-23.9-1.9C1.9,473.1,1.9,477.6,4.9,477.5L4.9,477.5z"/>
		<path class="st3" d="M56.5,490.7c9.2,0.6,16.7,6,18.5,15.3c1.5,7.8-1.2,16.7-7.5,21.7c-7.2,5.8-18.8,5.6-25.9-0.2
			c-6.3-5-8.7-13.8-6.9-21.6C37,495.4,46.1,490,56.5,490.7c2.9,0.2,2.9-4.4,0-4.6c-11-0.7-21.1,4.5-25.2,15.1
			c-3.5,9.3-1.7,20.6,5.2,27.8c7.5,7.9,20.7,9.6,30.3,4.6c9.2-4.9,14.1-15.6,13.1-25.8C78.7,495.1,69,487,56.5,486.1
			C53.6,485.9,53.6,490.5,56.5,490.7z"/>
		<path class="st3" d="M1824.9,301.6c16.9,65,26.6,131.6,42.1,197c0.7,2.9,5.1,1.6,4.4-1.2c-15.4-65.4-25.2-132-42.1-197
			C1828.5,297.5,1824.1,298.7,1824.9,301.6z"/>
		<path class="st3" d="M1901,313.6c-34.1,57.9-74.2,111.9-109.6,169.1c-1.6,2.5,2.4,4.8,3.9,2.3c35.3-57.1,75.5-111.1,109.6-169.1
			C1906.4,313.3,1902.5,311,1901,313.6z"/>
		<path class="st3" d="M1946.2,375.9c-65,16.9-131.6,26.6-197,42.1c-2.9,0.7-1.7,5.1,1.2,4.4c65.4-15.4,132-25.2,197-42.1
			C1950.2,379.6,1949,375.2,1946.2,375.9L1946.2,375.9z"/>
		<path class="st3" d="M1934.2,452c-57.9-34.1-111.9-74.2-169.1-109.5c-2.5-1.5-4.8,2.4-2.3,3.9c57.1,35.3,111.1,75.5,169.1,109.5
			C1934.4,457.4,1936.7,453.5,1934.2,452L1934.2,452z"/>
		<path class="st3" d="M1846.9,305c-5.3,6.6-10.2,13.5-14.7,20.6l3.1-0.8c-7.9-4.1-15.4-8.9-23.3-12.9c-2.6-1.3-4.9,2.6-2.3,3.9
			c7.9,4.1,15.4,8.9,23.3,12.9c1.1,0.6,2.5,0.2,3.1-0.8c4.3-6.8,8.9-13.4,13.9-19.7C1851.9,306,1848.7,302.7,1846.9,305L1846.9,305z
			"/>
		<path class="st3" d="M1849.2,324.8l-13.2,22l3.1-0.8l-22.5-12.4c-2.6-1.4-4.9,2.5-2.3,3.9l22.5,12.4c1.1,0.6,2.5,0.2,3.1-0.8
			l13.2-22C1854.6,324.5,1850.7,322.2,1849.2,324.8L1849.2,324.8z"/>
		<path class="st3" d="M1886.9,482.4c-7.3-3.8-14.4-8.1-21.2-12.7c-0.9-0.5-2-0.4-2.8,0.4c-5.6,6.9-10.5,14.3-16.1,21.2
			c-1.8,2.3,1.4,5.5,3.2,3.2c5.6-6.9,10.5-14.3,16.1-21.2l-2.8,0.4c6.8,4.6,13.9,8.9,21.2,12.7
			C1887.2,487.6,1889.5,483.7,1886.9,482.4L1886.9,482.4z"/>
		<path class="st3" d="M1881.6,463.6l-20.9-14.8c-1.1-0.6-2.5-0.2-3.1,0.8l-15.6,20.4c-1.8,2.3,2.2,4.6,3.9,2.3l15.6-20.4l-3.1,0.8
			l20.9,14.8C1881.7,469.2,1884,465.3,1881.6,463.6L1881.6,463.6z"/>
		<path class="st3" d="M1914.1,331.5c-8.4,0.9-16.7,2.3-24.9,4.2l2.8,1.6c-2.7-8.5-4.6-17.1-7.3-25.6c-0.9-2.8-5.3-1.6-4.4,1.2
			c2.7,8.5,4.6,17.1,7.3,25.6c0.4,1.2,1.6,1.9,2.8,1.6c7.8-1.8,15.8-3.1,23.7-4C1917,335.9,1917,331.3,1914.1,331.5L1914.1,331.5z"
			/>
		<path class="st3" d="M1901.7,347.2l-24.9,6.2l2.8,1.6l-7.1-24.7c-0.8-2.8-5.2-1.6-4.4,1.2l7.1,24.7c0.4,1.2,1.6,1.9,2.8,1.6
			l24.9-6.2C1905.8,350.9,1904.6,346.5,1901.7,347.2L1901.7,347.2z"/>
		<path class="st3" d="M1816.9,485.3c-2.4-7.9-4.5-15.9-6-24c-0.3-1-1.2-1.7-2.2-1.7c-8.8,0.9-17.6,2.7-26.4,3.6
			c-2.9,0.3-2.9,4.9,0,4.6c8.8-0.9,17.6-2.7,26.4-3.6l-2.2-1.7c1.5,8.1,3.6,16.1,6,24C1813.5,489.2,1817.9,488.1,1816.9,485.3
			L1816.9,485.3z"/>
		<path class="st3" d="M1826.5,468.2l-4.3-25.2c-0.3-1-1.2-1.7-2.2-1.7l-25.4,3.4c-2.9,0.4-2.9,5,0,4.6l25.4-3.4l-2.2-1.7l4.3,25.3
			C1822.6,472.4,1827,471.2,1826.5,468.2L1826.5,468.2z"/>
		<path class="st3" d="M1942.7,397.9c-6.6-5.3-13.5-10.2-20.6-14.6l0.8,3.1c4.1-7.9,8.9-15.4,12.9-23.3c1.3-2.6-2.6-4.9-3.9-2.3
			c-4.1,7.9-8.9,15.4-12.9,23.3c-0.6,1.1-0.2,2.5,0.8,3.1c6.8,4.3,13.4,8.9,19.7,13.9C1941.7,403,1945,399.8,1942.7,397.9
			L1942.7,397.9z"/>
		<path class="st3" d="M1922.9,400.2L1901,387l0.8,3.1l12.4-22.5c1.4-2.6-2.5-4.9-3.9-2.3l-12.4,22.5c-0.6,1.1-0.2,2.5,0.8,3.1
			l22,13.2C1923.2,405.7,1925.5,401.7,1922.9,400.2L1922.9,400.2z"/>
		<path class="st3" d="M1765.3,438c3.8-7.3,8.1-14.4,12.7-21.2c0.5-0.9,0.4-2-0.4-2.8c-6.9-5.6-14.3-10.5-21.2-16.1
			c-2.3-1.8-5.5,1.4-3.2,3.2c6.9,5.6,14.3,10.5,21.2,16.1l-0.4-2.8c-4.6,6.8-8.9,13.9-12.7,21.2C1760.1,438.3,1764,440.6,1765.3,438
			L1765.3,438z"/>
		<path class="st3" d="M1784.1,432.6l14.8-20.9c0.6-1.1,0.2-2.5-0.8-3.1l-20.4-15.6c-2.3-1.8-4.6,2.2-2.3,3.9l20.4,15.6l-0.8-3.1
			l-14.8,20.9C1778.5,432.7,1782.4,435,1784.1,432.6L1784.1,432.6z"/>
		<path class="st3" d="M1916.2,465.1c-0.9-8.4-2.3-16.7-4.2-25l-1.6,2.8c8.5-2.7,17.2-4.6,25.6-7.3c2.8-0.9,1.6-5.3-1.2-4.4
			c-8.5,2.7-17.2,4.6-25.6,7.3c-1.2,0.4-1.9,1.6-1.6,2.8c1.8,7.8,3.1,15.8,4.1,23.7C1911.9,468,1916.4,468.1,1916.2,465.1
			L1916.2,465.1z"/>
		<path class="st3" d="M1900.5,452.8l-6.2-24.9l-1.6,2.8l24.7-7.1c2.8-0.8,1.6-5.2-1.2-4.4l-24.7,7.1c-1.2,0.4-1.9,1.6-1.6,2.8
			l6.2,24.9C1896.8,456.8,1901.2,455.6,1900.5,452.8L1900.5,452.8z"/>
		<path class="st3" d="M1762.4,368c7.9-2.5,15.9-4.5,24-6c1-0.3,1.7-1.2,1.7-2.2c-0.9-8.8-2.7-17.5-3.6-26.4c-0.3-2.9-4.9-2.9-4.6,0
			c0.9,8.8,2.7,17.5,3.6,26.4l1.7-2.2c-8.1,1.5-16.1,3.5-24,6C1758.5,364.5,1759.7,368.9,1762.4,368L1762.4,368z"/>
		<path class="st3" d="M1779.5,377.5l25.3-4.3c1-0.3,1.7-1.2,1.7-2.2l-3.4-25.5c-0.4-2.9-5-2.9-4.6,0l3.4,25.5l1.7-2.2l-25.3,4.3
			C1775.4,373.6,1776.6,378,1779.5,377.5L1779.5,377.5z"/>
		<path class="st1" d="M1824.4,288.2c12.9-3.8,17.6,15.5,5.4,19.1C1817.1,311.1,1811,291.7,1824.4,288.2"/>
		<path class="st1" d="M1871.1,510.9c13.3-1.7,9.9-21.3-2.7-19.7C1855.2,492.8,1857.4,513,1871.1,510.9"/>
		<path class="st1" d="M1910,303.8c11.8,6.4,1.5,23.4-9.7,17.4C1888.6,314.9,1898.1,296.8,1910,303.8"/>
		<path class="st1" d="M1785.6,494.3c10.6,8.2,22-8,12-15.9C1787.1,470.2,1774.4,486.1,1785.6,494.3"/>
		<path class="st1" d="M1959.5,375.4c3.8,12.9-15.5,17.6-19.1,5.4C1936.6,368.2,1956,362,1959.5,375.4"/>
		<path class="st1" d="M1736.8,422.1c1.7,13.3,21.3,9.9,19.7-2.7C1754.9,406.2,1734.7,408.5,1736.8,422.1"/>
		<path class="st1" d="M1944,461.1c-6.4,11.8-23.4,1.5-17.4-9.7C1932.9,439.7,1951,449.2,1944,461.1"/>
		<path class="st1" d="M1753.4,336.6c-8.2,10.6,8.1,22,15.9,12C1777.5,338.2,1761.6,325.4,1753.4,336.6"/>
		<path class="st3" d="M1840.8,369.7c13.1-3.7,26.4,0,33.6,12.1c6.1,10.2,6.7,24,0.4,34.2c-7.2,11.6-23.2,17-36.1,12.9
			c-11.7-3.8-19.6-15.3-20.9-27.2C1816,386,1826,373.8,1840.8,369.7c2.8-0.8,1.6-5.2-1.2-4.4c-15,4.1-26.1,15.7-26.6,31.8
			c-0.4,13.7,7.1,27.8,19.5,34.1c13.8,7.1,32.4,3.4,42.7-8.2c9.4-10.6,10.8-26.2,5.4-39c-7.1-16.6-24-23.5-41-18.7
			C1836.8,366.1,1838,370.5,1840.8,369.7L1840.8,369.7z"/>
		<path class="st3" d="M341.3,1076.4c-13.2-16.8-34.9-14.1-52.8-7.4l2.8,2.8c6.4-19.4-6.5-44.4-27.7-46.7l2,3.4
			c9.5-16.4,2.4-43.2-16.9-48.8l1,3.8c16-14.1,21.2-35,15.7-55.3l-3.8,2.2c12.3,13,35.5,22.9,53.2,16.7l-2.8-2.8
			c-1.9,9.5-0.6,18.8,5.7,26.5c6.5,7.9,16.3,12.3,25.9,15l-1.4-3.4c-12.8,20.1,1.4,40.9,20.2,50.5v-3.9
			c-16.1,10.7-32,29.1-24.9,49.7c1,2.8,5.4,1.6,4.4-1.2c-6.4-18.6,8.3-35,22.8-44.5c1.1-0.7,1.4-2.1,0.8-3.2
			c-0.2-0.3-0.5-0.6-0.8-0.8c-16.5-8.5-30-26.2-18.5-44.3c0.6-1.1,0.2-2.5-0.9-3.2c-0.2-0.1-0.3-0.2-0.5-0.2
			c-17.1-4.8-32.4-16.2-28.4-35.9c0.3-1.6-1-3.4-2.8-2.8c-16.3,5.7-37.5-3.6-48.8-15.5c-0.9-0.9-2.4-0.8-3.3,0.1
			c-0.5,0.6-0.8,1.4-0.6,2.1c5.2,18.8,0.4,37.9-14.5,50.9c-0.9,0.9-0.9,2.4,0,3.3c0.3,0.3,0.6,0.5,1,0.6
			c16.3,4.8,22.1,28.3,14.1,42.1c-0.6,1.1-0.2,2.5,0.9,3.1c0.3,0.2,0.7,0.3,1.1,0.3c18.3,2,28.7,24.6,23.3,40.9
			c-0.3,1.2,0.4,2.5,1.6,2.8c0.4,0.1,0.8,0.1,1.2,0c16.4-6.2,36.1-9.3,48.3,6.2C339.9,1081.9,343.1,1078.6,341.3,1076.4
			L341.3,1076.4z"/>
		<path class="st3" d="M280.1,966.6c8.3,17.1,17.6,33.6,25.5,50.9c7.8,17.1,15.5,34.2,26.2,49.7c1.7,2.4,5.6,0.1,3.9-2.3
			c-10.7-15.5-18.5-32.6-26.2-49.7c-7.9-17.3-17.2-33.8-25.5-50.9C282.7,961.7,278.8,964,280.1,966.6L280.1,966.6z"/>
		<path class="st3" d="M274.3,987.8l18.8,5.3c2.8,0.8,4-3.6,1.2-4.4l-18.8-5.3C272.7,982.5,271.5,986.9,274.3,987.8z"/>
		<path class="st3" d="M283.1,1020.9c8.5,2.1,17.2,4.2,25.9,5.5c2.9,0.4,4.1-4,1.2-4.4c-8.7-1.3-17.3-3.5-25.9-5.5
			C281.5,1015.8,280.2,1020.2,283.1,1020.9z"/>
		<path class="st3" d="M305.8,1049.1l16.8,3.7c2.9,0.6,4.1-3.8,1.2-4.4l-16.8-3.7C304.1,1044.1,302.9,1048.5,305.8,1049.1
			L305.8,1049.1z"/>
		<path class="st3" d="M301.8,1000.9c3.7-7.6,7.5-15.2,11.1-22.9c1.3-2.6-2.7-5-3.9-2.3c-3.6,7.7-7.4,15.3-11.1,22.9
			C296.5,1001.2,300.5,1003.5,301.8,1000.9z"/>
		<path class="st3" d="M317.6,1034.3c4.4-8.5,8.8-17.1,13.6-25.4c1.5-2.5-2.5-4.8-3.9-2.3c-4.8,8.3-9.2,16.8-13.6,25.4
			C312.3,1034.6,316.3,1036.9,317.6,1034.3L317.6,1034.3z"/>
		<path class="st1" d="M321.5,1061.7c18.3-21.6,48.9,6.9,31.8,27.4C335.3,1110.5,302,1083.4,321.5,1061.7"/>
		<path class="st1" d="M1362.1,985.6c10.3-2.5,13.3,12.9,3.6,15.3C1355.4,1003.5,1351.4,987.9,1362.1,985.6"/>
		<path class="st1" d="M1372.3,1066.5c9.3-2.3,12,11.7,3.2,13.8C1366.4,1082.6,1362.7,1068.5,1372.3,1066.5"/>
		<path class="st1" d="M1452,1019.5c11.3-2.7,14.5,14.1,3.9,16.7C1444.8,1038.9,1440.3,1021.9,1452,1019.5"/>
		<path class="st1" d="M1363.8,1033.5c11.3-2.7,14.5,14.1,3.9,16.8C1356.6,1053,1352.1,1035.9,1363.8,1033.5"/>
		<path class="st1" d="M1351.1,953.2c9.3-2.3,12,11.6,3.2,13.8C1345.2,969.3,1341.5,955.2,1351.1,953.2"/>
		<path class="st1" d="M1324.1,1042.4c9.3-2.3,12,11.6,3.2,13.8C1318.1,1058.5,1314.4,1044.4,1324.1,1042.4"/>
		<path class="st1" d="M1420.4,1058.1c10.3-2.5,13.3,12.9,3.6,15.3C1413.8,1075.9,1409.7,1060.3,1420.4,1058.1"/>
		<path class="st1" d="M1337.6,1069.2c10.3-2.5,13.3,12.9,3.6,15.3C1331,1087.1,1326.9,1071.5,1337.6,1069.2"/>
		<path class="st1" d="M1446.6,947.2c10.3-2.5,13.3,12.9,3.6,15.3C1439.9,965.1,1435.9,949.5,1446.6,947.2"/>
		<path class="st1" d="M1452.9,1049.1c9.3-2.3,12,11.7,3.2,13.8C1446.9,1065.2,1443.2,1051.2,1452.9,1049.1"/>
		<path class="st1" d="M1415.2,1025.3c9.3-2.3,12,11.6,3.2,13.8C1409.3,1041.4,1405.6,1027.3,1415.2,1025.3"/>
		<path class="st1" d="M1445.4,977.6c9.3-2.3,12,11.7,3.2,13.8C1439.5,993.7,1435.8,979.6,1445.4,977.6"/>
		<path class="st1" d="M1412.3,941.8c9.3-2.3,12,11.7,3.2,13.8C1406.4,957.9,1402.7,943.8,1412.3,941.8"/>
		<path class="st1" d="M1311.5,994.5c9.3-2.3,12,11.7,3.2,13.8C1305.6,1010.6,1301.9,996.5,1311.5,994.5"/>
		<path class="st1" d="M1406.9,973.5c11.3-2.7,14.5,14.1,3.9,16.7C1399.7,993,1395.2,976,1406.9,973.5"/>
		<path class="st1" d="M1314.5,959c11.3-2.7,14.5,14.1,3.9,16.7C1307.3,978.5,1302.8,961.5,1314.5,959"/>
		<path class="st3" d="M1465.1,937.3c3.4,17.9,6,35.9,8.9,53.9c2.9,18.4,7.3,36.6,9.5,55c0.8,7.1,3,18.9-2.8,24.7
			c-3.3,3.3-8.6,4.2-13.2,5.3c-19.2,4.9-38.8,8.5-58.3,11.9c-22.6,3.9-45.3,7.4-68.2,8.8c-7.2,0.4-14.9,1-22-0.2
			c-4.9-0.9-5.9-2.7-7.5-7.4c-6.8-19.7-9.4-41.4-12.5-61.9s-6.3-41.6-7-62.5c-0.2-4.4-0.2-8.6,3.5-11.6c5.5-4.6,13.9-6,20.7-7.5
			c26.1-5.8,52.9-9,79.3-13.3c11.9-1.9,23.9-3.6,36-4.4c9.2-0.6,20.6-1.7,29.3,2.3c2.8,1.3,4.6,3.1,4.4,6.3c-0.2,2.9,4.3,2.9,4.6,0
			c0.6-8-7.5-11.3-14.1-12.5c-11.4-2-23.5-0.9-34.9,0.3c-27.4,2.9-54.8,8-82,12.5c-12,2-24.3,3.7-35.8,7.7c-5.3,1.8-11.3,4.4-14,9.7
			c-2.5,4.9-1.4,11.4-1,16.7c0.8,11,2,21.9,3.4,32.9c3.1,24.9,6.7,50,12.5,74.5c1.4,6,2.6,14.1,6.6,19.1c3.1,3.9,9.5,4.1,14.1,4.3
			c21.3,1.1,43.2-2.6,64.2-5.8c23.5-3.5,46.9-7.7,70.1-13c11.5-2.6,27.2-4.1,29.7-18.1c2.4-13.3-1.4-28.2-3.9-41.2
			c-3.6-19.1-6.6-38.2-9.6-57.3c-1.6-10.2-3.3-20.3-5.3-30.4c-0.6-2.9-5-1.7-4.4,1.2L1465.1,937.3z"/>
		<path class="st3" d="M1373.3,927.8c9,56.8,15.7,114,24.8,170.8c0.5,2.9,4.9,1.7,4.4-1.2c-9-56.8-15.7-114-24.8-170.8
			C1377.2,923.7,1372.8,924.9,1373.3,927.8L1373.3,927.8z"/>
		<path class="st3" d="M1481.2,991.8c-63.3,13.4-127.4,21.5-191.2,31.6c-2.9,0.5-1.7,4.9,1.2,4.4c63.8-10.1,128-18.2,191.2-31.6
			C1485.3,995.6,1484.1,991.2,1481.2,991.8L1481.2,991.8z"/>
		<path class="st3" d="M1378.5,933.2c13.9-5,29.1-5.6,43.3-9.9c10.7-3.3,23.6-9.3,19.9-22.6c-2.7-9.7-9.4-18.6-20.5-15.2
			c-10.9,3.4-19.7,13.4-26.8,21.8c-5.8,6.8-12.3,16.7-16.8,22.5l3.6,2.8c7.1-12.3,15.3-23.9,20.5-37.3c4.5-11.3,7-26.1-6.6-31.8
			c-25.3-10.5-24.4,27-23.1,41.8c0.8,8.8,2.3,17.5,3.8,26.3c0.5,2.9,4.9,1.7,4.4-1.2c-1.9-11.5-5.3-22.7-10.1-33.4
			c-4.2-9.3-10.3-20.2-20.2-24.3c-9.6-4-17.9,2.5-20.9,11.6c-3.4,10.3,3.6,18.8,10.6,25.7c10.7,10.4,23.6,18.3,37.8,23.1
			c2.4,0.8,4.1-3,1.8-4.2c-13-6.6-26.1-13.3-40-17.7c-9.8-3.1-27.4-7.8-33.4,4.1c-4.6,9.1-1.1,18.6,8.3,22.2
			c10.8,4.2,23.9,2.8,35.2,1.4c10.4-1.3,20.4-3.7,30.7-5.4c2.9-0.5,1.7-4.9-1.2-4.4c-17.9,3-35.9,8-54.2,6.1
			c-7.9-0.8-17.7-3.7-15.9-13.6c2.4-13.5,19.1-9.1,28.3-6.3c14,4.3,27,11,40,17.6l1.8-4.2c-13.4-4.5-25.6-12-35.8-21.9
			c-4-3.9-9.7-9.6-10.3-15.5c-0.5-4.8,2.3-10.8,6.2-13.5c11.2-8,22.3,10.8,26.1,18.7c5.4,11.1,9.1,23,11,35.2l4.4-1.2
			c-2.7-15.8-5.7-32.2-3.7-48.3c0.9-7,3.4-17,12.4-15.7c5.1,0.8,10.3,3.6,11.6,8.8c1.5,5.8-0.7,12.4-2.8,17.8
			c-5.1,13.3-13.4,24.9-20.5,37.2c-1.3,2.2,1.9,4.9,3.6,2.8c10.7-13.6,19.5-29,34.1-39.1c7.5-5.2,15.8-7.1,20.4,2.4
			c2.3,4.7,4.3,10.5,0.4,14.8s-10.6,6.4-16,8c-13.8,4.1-28.7,4.8-42.3,9.6C1374.6,929.8,1375.7,934.2,1378.5,933.2L1378.5,933.2z"/>
		<path class="st3" d="M1375.7,930.8c6.2,10.4,16.3,16.1,26.7,21.6c5,2.7,10.8,5.2,14.6,9.5c4.1,4.7,5.4,10.8,6.4,16.8
			c0.5,2.9,4.9,1.7,4.4-1.2c-1.9-11.6-6.4-19.7-16.8-25.5c-11.5-6.5-24.3-11.6-31.4-23.5C1378.1,926,1374.2,928.2,1375.7,930.8
			L1375.7,930.8z"/>
		<path class="st3" d="M1375.7,930.4c-12.7,7.9-15,21.2-18.6,34.6c-4.1,15.3-14.4,26.7-27.9,34.4c-2.6,1.5-0.3,5.4,2.3,3.9
			c12-6.9,21.8-16.5,27.2-29.4c5.9-13.8,5.1-30.8,19.3-39.7C1380.5,932.8,1378.3,928.8,1375.7,930.4L1375.7,930.4z"/>
		<path class="st3" d="M1739,1043.8c-1.2,17.6-0.7,35.2,0.2,52.8l1.1-2c-6,2.5-13.8,2.3-20.2,2.5c-8.9,0.2-18.2-0.2-26.9-2.2
			c-3.2-0.8-6.8-1.7-9.4-3.7c-0.6-0.4-2.2-2.5-1.9-1.2c0-0.7,0.1-1.4,0.3-2c1.1-7.5,2.1-15,3.1-22.4c1.2-8.9,2.5-17.8,3.3-26.7
			c0.3-2.9-4.3-2.9-4.6,0c-0.8,9.1-2.1,18.1-3.4,27.1c-1,7.4-2.8,15-3.2,22.4c-0.3,5.7,6.4,8.5,11,10c9,2.9,19,3.4,28.4,3.4
			c8.3,0,18,0.2,25.8-3.1c0.7-0.4,1.2-1.2,1.1-2c-0.9-17.6-1.4-35.2-0.2-52.8C1743.8,1040.8,1739.2,1040.8,1739,1043.8L1739,1043.8z
			"/>
		<path class="st3" d="M1718.7,1041.8c-2,18.6-3.7,37.3-5.3,55.9c-0.3,2.9,4.3,2.9,4.6,0c1.6-18.7,3.2-37.3,5.3-55.9
			C1723.5,1038.9,1719,1038.9,1718.7,1041.8z"/>
		<path class="st3" d="M1728.9,1044.6c-1.7,17.7-1.4,35.5-2.9,53.2c-0.2,2.9,4.3,2.9,4.6,0c1.4-17.7,1.2-35.5,2.9-53.2
			C1733.8,1041.7,1729.2,1041.7,1728.9,1044.6z"/>
		<path class="st3" d="M1706.7,1042.9c-2.1,18.6-4,37.2-5.6,55.9c-0.3,2.9,4.3,2.9,4.6,0c1.6-18.7,3.5-37.3,5.6-55.9
			C1711.6,1040,1707,1040,1706.7,1042.9z"/>
		<path class="st3" d="M1695.9,1040.7c-2.8,18.2-4.8,36.5-7.5,54.8c-0.4,2.9,4,4.1,4.4,1.2c2.7-18.2,4.7-36.5,7.5-54.8
			C1700.7,1039,1696.3,1037.8,1695.9,1040.7z"/>
		<path class="st3" d="M1712,1037.7c-57.4-4.9-114.5-10.6-171.4-19.8l1.4,3.4c18.9-30.3,41-58.6,60.5-88.5c0.6-1.1,0.2-2.5-0.9-3.2
			c-0.2-0.1-0.3-0.2-0.5-0.2c-13.3-3.9-26.6-7.3-40.1-10.3l1,3.8c25.9-32.3,49.8-66.2,75.9-98.4c0.9-0.9,0.9-2.4-0.1-3.3
			c-0.3-0.3-0.6-0.4-0.9-0.6c-14.3-3.5-28.6-6.4-43.1-8.8l1,3.8c26.3-30.1,52.1-60.2,75.2-92.9c0.6-1.1,0.3-2.5-0.8-3.1
			c-0.2-0.1-0.3-0.2-0.5-0.2c-12.1-2.6-23.9-6.4-35.2-11.4l0.5,3.6c27-34.6,57-66.8,85.2-100.3c5.4-6.5,10.8-13,16.2-19.5
			c3-3.7,6.1-7.4,9.1-11.2l4.2-5.1c0.2-0.2,4.9-6.2,3.9-6.2l-2-1.1c24.5,44.4,51.4,87.3,77.1,131c5.9,10,11.5,20.1,17,30.3l1.4-3.4
			c-12,3-24.2,4.8-36.6,5.3c-1.3,0-2.3,1.1-2.3,2.4c0,0.4,0.1,0.8,0.3,1.1c17.2,36,37.3,69.8,58.1,103.8l2-3.4
			c-14.7,0-29.3,0.4-44,1.4c-1.3,0-2.3,1-2.3,2.3c0,0.4,0.1,0.8,0.3,1.1c20.3,36.1,38,73.6,58.1,109.8l2-3.4
			c-13.8,0.7-27.6,1.8-41.3,3.3c-1.3,0-2.3,1.1-2.3,2.4c0,0.4,0.1,0.7,0.3,1.1c14.1,32.6,31,64,44.4,97l2.2-2.9
			C1827,1046.7,1769.6,1042.6,1712,1037.7c-3-0.2-2.9,4.4,0,4.6c57.6,4.9,115.1,9,172.9,9.6c1.3,0,2.8-1.5,2.2-2.9
			c-13.6-33.3-30.6-65-44.9-98l-2,3.4c13.7-1.6,27.5-2.7,41.3-3.3c1.3,0,2.3-1,2.3-2.3c0-0.4-0.1-0.8-0.3-1.1
			c-20.1-36.2-37.8-73.7-58.1-109.8l-2,3.4c14.7-1,29.3-1.4,44-1.4c1.3,0,2.3-1,2.3-2.3c0-0.4-0.1-0.8-0.3-1.1
			c-20.7-34-40.9-67.8-58.1-103.8l-2,3.4c12.8-0.5,25.4-2.4,37.8-5.5c1.2-0.4,1.9-1.6,1.6-2.9c-0.1-0.2-0.1-0.3-0.2-0.5
			c-20.7-38.7-44.8-75.5-67-113.3c-9.3-15.9-18.3-31.9-27.2-48c-0.4-0.7-1.2-1.1-2-1.1c-2.4,0-4.1,3.7-5.3,5.3
			c-2.7,3.4-5.5,6.8-8.3,10.3c-5.3,6.5-10.5,12.9-15.9,19.3c-8.9,10.7-17.8,21.3-26.9,31.8c-14.2,16.5-28.7,32.7-42.8,49.3
			c-7.7,9.1-15.2,18.4-22.6,27.8c-0.8,1-1,2.9,0.5,3.6c11.7,5.2,23.8,9.2,36.3,11.9l-1.4-3.4c-22.9,32.4-48.4,62.2-74.5,92
			c-1,1.2-0.8,3.5,1,3.8c14.5,2.5,28.8,5.3,43.1,8.8l-1-3.8c-26.1,32.2-50,66.1-75.9,98.4c-1,1.2-0.8,3.4,1,3.8
			c13.5,3,26.9,6.4,40.1,10.3l-1.4-3.4c-19.4,29.9-41.4,58.1-60.4,88.5c-0.6,1.1-0.3,2.5,0.8,3.1c0.2,0.1,0.3,0.2,0.5,0.2
			c57.3,9.2,114.8,15,172.6,19.9C1714.9,1042.5,1714.9,1038,1712,1037.7L1712,1037.7z"/>
		<path class="st3" d="M1796.4,709.6c-1.3,15.7-2.1,31.7-7.4,46.7l3.4-1.4c-13.1-9.5-24.3-22.1-34.9-34.2c-0.9-0.9-2.3-0.9-3.2,0
			l-27.8,32.7l3.6,0.5c-6.6-12.2-12.2-25-16.7-38.1c-0.4-1.2-1.7-1.9-2.9-1.6c-0.2,0-0.3,0.1-0.5,0.2c-9.3,4.3-18.7,8.8-28.4,12.3
			l2.9,2.2c-1.1-9.3,2.1-18.4,3.1-27.7c0.3-2.9-4.3-2.9-4.6,0c-1,9.3-4.2,18.3-3.1,27.7c0.2,1.3,1.3,2.8,2.9,2.2
			c10-3.7,19.7-8.4,29.4-12.8l-3.4-1.4c4.6,13.5,10.3,26.7,17.1,39.2c0.7,1.1,2.1,1.4,3.2,0.8c0.2-0.1,0.3-0.2,0.4-0.3l27.8-32.7
			h-3.2c10.8,12.4,22.4,25.2,35.8,34.9c1.3,0.9,2.9-0.1,3.4-1.4c5.5-15.4,6.3-31.8,7.6-48C1801.2,706.7,1796.6,706.7,1796.4,709.6
			L1796.4,709.6z"/>
		<path class="st3" d="M1805.9,808.6c1.6,17.1,0.9,33.7-0.5,50.8l3.4-2c-15.5-9.1-28.7-20.7-42.6-32c-0.9-0.9-2.3-0.9-3.2,0
			c-13.7,15.7-27.2,31.5-40.7,47.4l3.6,0.5c-12.2-16.3-18.1-36.1-27.5-53.9c-0.7-1.1-2.1-1.4-3.2-0.8c-0.1,0.1-0.3,0.2-0.4,0.3
			c-12.1,10-24.8,18.7-40,23.1l2.9,2.2c-1.6-13.8-3.9-27.3-4.1-41.2c-0.1-2.9-4.6-3-4.6,0c0.3,13.9,2.5,27.4,4.1,41.2
			c0,1.3,1.1,2.3,2.4,2.3c0.2,0,0.4,0,0.5-0.1c16-4.7,29.3-13.8,42-24.3l-3.6-0.5c9.4,17.8,15.3,37.6,27.5,53.9
			c0.8,1.1,2.5,1.7,3.6,0.5c13.5-15.9,27-31.7,40.7-47.4h-3.2c14.2,11.5,27.7,23.4,43.5,32.7c1.1,0.6,2.5,0.2,3.1-0.9
			c0.2-0.3,0.3-0.7,0.3-1.1c1.5-17.1,2.1-33.7,0.5-50.8C1810.2,805.6,1805.7,805.6,1805.9,808.6L1805.9,808.6z"/>
		<path class="st3" d="M1820.8,920.2c0.7,17.1,2.9,33.9,1.5,51l3.4-2c-17-7.5-28.3-22.5-42.2-34.1c-0.9-0.9-2.4-0.8-3.3,0.1
			c-0.1,0.1-0.2,0.2-0.3,0.4c-11.6,15.2-22.4,30.9-35.2,45.2l3.6,0.5c-11.9-16.3-20.8-34.1-30.1-52c-0.7-1.1-2.1-1.4-3.2-0.8
			c-0.2,0.1-0.3,0.2-0.4,0.3c-17.5,15.8-33.1,33.6-50.6,49.4l3.6,0.5c-8.1-15.3-13.7-31.6-19.9-47.7c-0.5-1.3-2-2.3-3.4-1.4
			c-9.5,6.7-18.5,14.2-28.2,20.5l3.4,1.4c-3.7-13.8-6.4-27.8-5.8-42.2c0.1-2.9-4.4-2.9-4.6,0c-0.6,14.7,2.2,29.2,6,43.4
			c0.3,1.2,1.6,1.9,2.8,1.6c0.2-0.1,0.4-0.1,0.5-0.2c9.8-6.3,18.7-13.8,28.2-20.5l-3.4-1.4c6.4,16.5,12.1,33.1,20.4,48.8
			c0.7,1.1,2.1,1.4,3.2,0.8c0.2-0.1,0.3-0.2,0.4-0.3c17.5-15.8,33.1-33.6,50.6-49.4l-3.6-0.5c9.3,17.8,18.3,35.7,30.1,52
			c0.7,1.1,2.1,1.4,3.2,0.8c0.2-0.1,0.3-0.2,0.4-0.3c13.1-14.6,24.1-30.6,35.9-46.1l-3.6,0.5c14.3,11.8,25.8,27.2,43.1,34.8
			c1.1,0.6,2.5,0.2,3.2-0.9c0.2-0.3,0.3-0.7,0.3-1.1c1.3-17.1-0.8-33.9-1.5-51C1825.3,917.2,1820.7,917.2,1820.8,920.2L1820.8,920.2
			z"/>
		<path class="st3" d="M1770.7,636.5c0.6,5.1,1.4,10.1,2.4,15.1c0.7,2.9,5.1,1.7,4.4-1.2c-1-4.6-1.7-9.2-2.3-13.9
			C1774.9,633.7,1770.3,633.6,1770.7,636.5L1770.7,636.5z"/>
		<path class="st3" d="M1732.7,695.7c-1.1,3.7-2,7.5-3.1,11.2c-0.8,2.8,3.6,4,4.4,1.2c1.1-3.7,2-7.5,3.1-11.2
			C1737.9,694.1,1733.5,692.9,1732.7,695.7z"/>
		<path class="st3" d="M1745.2,766.9l-0.5,14.3c-0.1,2.9,4.5,2.9,4.6,0l0.5-14.3C1749.9,763.9,1745.3,763.9,1745.2,766.9z"/>
		<path class="st3" d="M1646.5,776.6l-7.6,13c-1.5,2.5,2.5,4.8,3.9,2.3l7.6-13C1651.9,776.4,1647.9,774.1,1646.5,776.6z"/>
		<path class="st3" d="M1704.5,891.7l-3.2,12.6c-0.7,2.8,3.7,4.1,4.4,1.2l3.2-12.6C1709.6,890.1,1705.2,888.9,1704.5,891.7z"/>
		<path class="st3" d="M1794.6,910l0.9,15.1c0.2,2.9,4.7,2.9,4.6,0l-0.9-15.1C1799,907.1,1794.4,907.1,1794.6,910z"/>
		<path class="st3" d="M1738.3,1007c-0.5,4.7-0.7,9.5-0.5,14.3c0.2,2.9,4.8,2.9,4.6,0c-0.2-4.8,0-9.5,0.5-14.3
			C1743.2,1004.1,1738.6,1004.1,1738.3,1007z"/>
		<path class="st3" d="M1590.7,985.3l-6.1,13.1c-1.2,2.7,2.7,5,3.9,2.3l6.1-13.1C1595.9,985,1591.9,982.6,1590.7,985.3z"/>
		<path class="st3" d="M1691.2,663.7c-1.8,4.2-4,8.3-6.1,12.4c-1.4,2.6,2.6,4.9,3.9,2.3c2.1-4.1,4.2-8.2,6.1-12.4
			C1696.3,663.3,1692.4,661,1691.2,663.7L1691.2,663.7z"/>
		<path class="st3" d="M1805.7,776l5.4,11.9c1.2,2.7,5.2,0.3,3.9-2.3l-5.4-11.9C1808.4,771,1804.5,773.3,1805.7,776z"/>
		<path class="st3" d="M1747.9,928.3l-1.3,15.7c-0.3,2.9,4.3,2.9,4.6,0l1.3-15.7C1752.8,925.3,1748.2,925.4,1747.9,928.3z"/>
		<path class="st3" d="M1652.4,999l-3.6,16.9c-0.6,2.9,3.8,4.1,4.4,1.2l3.6-16.9C1657.4,997.3,1653,996.1,1652.4,999z"/>
		<path class="st3" d="M1743.4,603.5c-1,4.9-1.7,9.8-2,14.8c-0.3,2.9,4.3,2.9,4.6,0c0.3-4.6,0.9-9.1,1.8-13.5
			C1748.5,601.9,1744.1,600.6,1743.4,603.5L1743.4,603.5z"/>
		<path class="st3" d="M1795.3,677.2l5.2,14.8c1,2.8,5.4,1.6,4.4-1.2l-5.2-14.8C1798.7,673.2,1794.3,674.4,1795.3,677.2
			L1795.3,677.2z"/>
		<path class="st3" d="M1711.6,775.6l-5.1,17.4c-0.8,2.8,3.6,4,4.4,1.2l5.1-17.5C1716.8,773.9,1712.4,772.7,1711.6,775.6
			L1711.6,775.6z"/>
		<path class="st3" d="M1670,925.9c-0.4,5-0.9,10-1.3,14.9c-0.3,2.9,4.3,2.9,4.6,0c0.4-5,0.9-10,1.3-14.9
			C1674.8,923,1670.3,923,1670,925.9z"/>
		<path class="st3" d="M1809.7,1001.6c-0.6,6.2-0.9,12.4-0.9,18.5c0.1,2.9,4.7,3,4.6,0c-0.1-6.2,0.2-12.4,0.9-18.5
			C1814.5,998.7,1810,998.7,1809.7,1001.6z"/>
		<path class="st3" d="M1780.7,863.7l1.6,15.2c0.3,2.9,4.9,2.9,4.6,0l-1.6-15.2C1784.9,860.8,1780.3,860.8,1780.7,863.7z"/>
		<path class="st3" d="M1683,850.5l-5.5,14.6c-1,2.8,3.4,3.9,4.4,1.2l5.5-14.6C1688.4,848.9,1684,847.8,1683,850.5z"/>
		<path class="st3" d="M1712.1,961.8c-0.4,5.2-0.9,10.4-1.3,15.7c-0.3,2.9,4.3,2.9,4.6,0c0.4-5.2,0.9-10.4,1.3-15.7
			C1716.9,958.8,1712.4,958.8,1712.1,961.8z"/>
		<path class="st3" d="M1633.6,900.7l-4.6,11.1c-1.1,2.7,3.3,3.9,4.4,1.2l4.5-11.1C1639,899.2,1634.6,898,1633.6,900.7L1633.6,900.7
			z"/>
		<path class="st3" d="M1775.7,713.5l3.2,12.5c0.7,2.8,5.2,1.6,4.4-1.2l-3.2-12.5C1779.4,709.4,1774.9,710.6,1775.7,713.5z"/>
		<path class="st3" d="M1727.8,828.5l-1.9,13.5c-0.4,2.9,4,4.1,4.4,1.2l1.9-13.5C1732.6,826.9,1728.2,825.6,1727.8,828.5
			L1727.8,828.5z"/>
		<path class="st3" d="M1749.2,661.9c-0.3,3.6-0.6,7.1-0.9,10.7c-0.3,2.9,4.3,2.9,4.6,0c0.3-3.6,0.6-7.1,0.9-10.7
			C1754,659,1749.4,659,1749.2,661.9z"/>
		<path class="st3" d="M1671.3,802.2c-1.2,3.9-2,7.8-2.5,11.9c-0.3,2.9,4.3,2.9,4.6,0c0.4-3.6,1.2-7.2,2.3-10.7
			C1676.5,800.6,1672.1,799.4,1671.3,802.2L1671.3,802.2z"/>
		<path class="st3" d="M1603.8,886.4c-3.1,2.7-5.1,6.3-6.9,9.9c-1.3,2.6,2.6,4.9,3.9,2.3c1.7-3.3,3.3-6.5,6.2-9
			C1609.2,887.7,1606,884.5,1603.8,886.4L1603.8,886.4z"/>
		<path class="st3" d="M1780,972.7c-0.9,3.9-1.5,7.9-1.8,11.9c-0.3,2.9,4.3,2.9,4.6,0c0.3-3.6,0.8-7.2,1.6-10.7
			C1785.1,971,1780.7,969.8,1780,972.7L1780,972.7z"/>
		<path class="st3" d="M1702.5,690.4c-1.9,3.5-3.4,7.1-4.7,10.9c-0.9,2.8,3.6,4,4.4,1.2c1.1-3.4,2.5-6.7,4.2-9.8
			C1707.8,690.1,1703.8,687.8,1702.5,690.4L1702.5,690.4z"/>
		<path class="st3" d="M1784.2,815.2c1,4.3,2.4,8.4,4.2,12.3c1.3,2.7,5.2,0.3,3.9-2.3c-1.6-3.6-2.9-7.4-3.8-11.3
			C1787.9,811.1,1783.5,812.3,1784.2,815.2L1784.2,815.2z"/>
		<path class="st3" d="M1729.2,888.1c-0.9,3.7-1.5,7.4-1.7,11.2c-0.3,2.9,4.3,2.9,4.6,0c0.2-3.4,0.7-6.7,1.5-10
			C1734.4,886.5,1730,885.3,1729.2,888.1L1729.2,888.1z"/>
		<path class="st3" d="M1672.4,745.4l-7.1,8c-2,2.2,1.3,5.4,3.2,3.2l7.1-8C1677.6,746.4,1674.3,743.2,1672.4,745.4z"/>
		<path class="st3" d="M1845.3,930.3c-6.9-0.6-6-11.3,0.9-10.7S1852.2,930.9,1845.3,930.3z"/>
		<path class="st3" d="M1772.3,675.7c13.3,0.1,12.3,19.7-0.3,19.7C1758.9,695.4,1758.6,675.3,1772.3,675.7"/>
		<path class="st3" d="M1671.2,883c14.5,0.1,13.4,21.5-0.3,21.5C1656.6,904.5,1656.3,882.5,1671.2,883"/>
		<path class="st3" d="M1636.9,880c-9.2-0.8-8-15,1.2-14.2S1646.2,880.8,1636.9,880z"/>
		<path class="st3" d="M1839.4,1025.8c-9.2-0.8-8-15,1.2-14.2S1848.6,1026.6,1839.4,1025.8z"/>
		<path class="st3" d="M1599.5,973.1c-6.9-0.6-6-11.3,0.9-10.7S1606.5,973.7,1599.5,973.1z"/>
		<path class="st3" d="M1700,753.1c-6.9-0.6-6-11.3,0.9-10.7S1706.9,753.7,1700,753.1z"/>
		<path class="st3" d="M1753.1,643.1c-6.9-0.6-6-11.3,0.9-10.7S1760,643.7,1753.1,643.1z"/>
		<path class="st3" d="M1830.3,820.1c-6.9-0.6-6-11.3,0.9-10.7S1837.3,820.7,1830.3,820.1z"/>
		<path class="st3" d="M1695.4,932.5c-6.9-0.6-6-11.3,0.9-10.7S1702.3,933.1,1695.4,932.5z"/>
		<path class="st3" d="M1678.7,1019.2c-6.9-0.6-6-11.3,0.9-10.7S1685.6,1019.8,1678.7,1019.2z"/>
		<path class="st4" d="M1760.3,882.2c19.3,0.1,17.8,28.7-0.4,28.7C1740.8,910.8,1740.4,881.5,1760.3,882.2"/>
		<path class="st4" d="M1626.6,976.5c16.9,0.1,15.6,25.1-0.4,25.1C1609.5,1001.6,1609.2,975.9,1626.6,976.5"/>
		<path class="st1" d="M1771.7,1005.9c13.3,0.1,12.3,19.7-0.3,19.7C1758.3,1025.6,1758,1005.5,1771.7,1005.9"/>
		<path class="st1" d="M1685.9,760.5c16.9,0.1,15.6,25.1-0.4,25.1C1668.8,785.6,1668.5,759.9,1685.9,760.5"/>
		<path class="st4" d="M1778,780c14.5,0.1,13.4,21.5-0.3,21.5C1763.4,801.5,1763.1,779.5,1778,780"/>
		<path class="st4" d="M1725.9,639.3c19.3,0.1,17.8,28.7-0.4,28.7C1706.4,668,1706,638.7,1725.9,639.3"/>
		<path class="st1" d="M1731.9,812.8c-9.2-0.8-8-15,1.2-14.2S1741.1,813.5,1731.9,812.8z"/>
		<path class="st1" d="M1817.4,895.4c-9.2-0.8-8-15,1.2-14.2S1826.7,896.1,1817.4,895.4z"/>
		<path class="st1" d="M1706.7,1011.8c-9.2-0.8-8-15,1.2-14.2S1715.9,1012.6,1706.7,1011.8z"/>
		<path class="st1" d="M1765.7,763c-6.9-0.6-6-11.3,0.9-10.7S1772.7,763.6,1765.7,763z"/>
		<path class="st1" d="M1756,869c-6.9-0.6-6-11.3,0.9-10.7S1762.9,869.6,1756,869z"/>
		<path class="st1" d="M1832.7,994.4c-6.9-0.6-6-11.3,0.9-10.7S1839.6,995,1832.7,994.4z"/>
		<path class="st6" d="M1741.5,557c-2.6,6.4-4.8,12.8-6.5,18.5c6.1-2.8,12-5.9,17.8-9.4c5.2,3.8,10.7,7.3,16.7,11
			c-1.5-6.1-3-12.5-4.5-18.8c4.9-3.4,9.7-6.8,14.1-10.3c-5.7-1.2-11.6-2.2-17.4-2.8c-1.7-6.3-3.1-15.3-5.1-19.8
			c-3,3.8-6.4,12.5-9.4,18.7c-6.2-0.3-12.3-0.4-18.2-0.4C1732.9,548.5,1737,552.9,1741.5,557z"/>
	</g>
</g>
</svg>
